<svg xmlns="http://www.w3.org/2000/svg" xmlns:xlink="http://www.w3.org/1999/xlink" viewBox="0 0 951.76 413.8"><defs><style>.cls-1,.cls-12,.cls-13,.cls-14,.cls-15{fill:none;}.cls-2{isolation:isolate;}.cls-3{fill:#d04f1b;}.cls-4{opacity:0.1;}.cls-5{clip-path:url(#clip-path);}.cls-6{fill:#fff;}.cls-7{opacity:0.3;mix-blend-mode:multiply;}.cls-8{fill:#5e2d3f;}.cls-9{fill:#fafff4;}.cls-10{fill:#c62005;}.cls-11{fill:#fdfffa;}.cls-12{stroke:#fdfffa;}.cls-12,.cls-13,.cls-14,.cls-15{stroke-miterlimit:10;}.cls-13{stroke:#fafff4;stroke-width:1.83px;}.cls-14,.cls-15{stroke:#efefef;stroke-width:1.06px;}.cls-15{stroke-linecap:round;}.cls-16{fill:#e54913;}</style><clipPath id="clip-path"><path class="cls-1" d="M156.26,60.56H537.81a0,0,0,0,1,0,0V339.72a0,0,0,0,1,0,0H156.26a29.7,29.7,0,0,1-29.7-29.7V90.27A29.7,29.7,0,0,1,156.26,60.56Z"/></clipPath></defs><title>coupon</title><g class="cls-2"><g id="Layer_2" data-name="Layer 2"><g id="Layer_1-2" data-name="Layer 1"><path class="cls-3" d="M44,0H678.22a0,0,0,0,1,0,0V413.8a0,0,0,0,1,0,0H44a44,44,0,0,1-44-44V44A44,44,0,0,1,44,0Z"/><g class="cls-4"><g class="cls-5"><path class="cls-6" d="M80.55,81.81c6.3,0,9.45-3.49,12.49-6.87s5.69-6.33,11.26-6.33,8.33,3.07,11.25,6.33,6.19,6.87,12.49,6.87,9.45-3.49,12.48-6.87,5.69-6.33,11.25-6.33,8.33,3.07,11.26,6.33,6.18,6.87,12.48,6.87S185,78.32,188,74.94s5.69-6.33,11.25-6.33,8.33,3.07,11.26,6.33,6.18,6.87,12.48,6.87,9.44-3.49,12.48-6.87,5.69-6.33,11.25-6.33S255,71.68,258,74.94s6.18,6.87,12.49,6.87,9.44-3.49,12.47-6.87,5.69-6.33,11.26-6.33,8.32,3.07,11.25,6.33,6.18,6.87,12.48,6.87,9.44-3.49,12.48-6.87,5.69-6.33,11.25-6.33,8.33,3.07,11.25,6.33,6.18,6.87,12.48,6.87,9.44-3.49,12.48-6.87,5.68-6.33,11.25-6.33,8.32,3.07,11.25,6.33,6.18,6.87,12.48,6.87,9.44-3.49,12.48-6.87,5.68-6.33,11.24-6.33,8.33,3.07,11.25,6.33,6.18,6.87,12.48,6.87,9.44-3.49,12.47-6.87,5.69-6.33,11.26-6.33,8.32,3.07,11.25,6.33,6.17,6.87,12.48,6.87,9.44-3.49,12.47-6.87,5.69-6.33,11.25-6.33,8.33,3.07,11.25,6.33,6.18,6.87,12.48,6.87,9.44-3.49,12.48-6.87,5.69-6.33,11.25-6.33V67c-6.3,0-9.44,3.49-12.48,6.87s-5.68,6.33-11.25,6.33-8.32-3.07-11.25-6.33S537.76,67,531.46,67,522,70.45,519,73.83s-5.69,6.33-11.25,6.33-8.33-3.07-11.26-6.33S490.31,67,484,67s-9.45,3.49-12.48,6.87-5.69,6.33-11.25,6.33S452,77.09,449,73.83,442.85,67,436.55,67s-9.43,3.49-12.47,6.87-5.69,6.33-11.25,6.33-8.33-3.07-11.25-6.33S395.4,67,389.1,67s-9.44,3.49-12.48,6.87-5.69,6.33-11.25,6.33-8.33-3.07-11.25-6.33S347.94,67,341.64,67s-9.44,3.49-12.48,6.87-5.69,6.33-11.25,6.33-8.33-3.07-11.25-6.33S300.48,67,294.18,67s-9.45,3.49-12.48,6.87-5.69,6.33-11.25,6.33-8.33-3.07-11.26-6.33S253,67,246.71,67s-9.44,3.49-12.48,6.87-5.69,6.33-11.25,6.33-8.33-3.07-11.26-6.33S205.54,67,199.24,67s-9.44,3.49-12.48,6.87-5.68,6.33-11.25,6.33-8.33-3.07-11.25-6.33S158.08,67,151.77,67s-9.44,3.49-12.48,6.87-5.68,6.33-11.25,6.33-8.33-3.07-11.26-6.33S110.6,67,104.3,67s-9.45,3.49-12.49,6.87-5.69,6.33-11.26,6.33Z"/><path class="cls-6" d="M80.55,96.37c6.3,0,9.45-3.49,12.49-6.87s5.69-6.33,11.26-6.33,8.33,3.07,11.25,6.33,6.19,6.87,12.49,6.87,9.45-3.49,12.48-6.87,5.69-6.33,11.25-6.33S160.1,86.24,163,89.5s6.18,6.87,12.48,6.87S185,92.88,188,89.5s5.69-6.33,11.25-6.33,8.33,3.07,11.26,6.33,6.18,6.87,12.48,6.87,9.44-3.49,12.48-6.87,5.69-6.33,11.25-6.33S255,86.24,258,89.5s6.18,6.87,12.49,6.87,9.44-3.49,12.47-6.87,5.69-6.33,11.26-6.33,8.32,3.07,11.25,6.33,6.18,6.87,12.48,6.87,9.44-3.49,12.48-6.87,5.69-6.33,11.25-6.33,8.33,3.07,11.25,6.33,6.18,6.87,12.48,6.87,9.44-3.49,12.48-6.87,5.68-6.33,11.25-6.33,8.32,3.07,11.25,6.33,6.18,6.87,12.48,6.87,9.44-3.49,12.48-6.87,5.68-6.33,11.24-6.33,8.33,3.07,11.25,6.33,6.18,6.87,12.48,6.87,9.44-3.49,12.47-6.87,5.69-6.33,11.26-6.33,8.32,3.07,11.25,6.33,6.17,6.87,12.48,6.87,9.44-3.49,12.47-6.87,5.69-6.33,11.25-6.33,8.33,3.07,11.25,6.33,6.18,6.87,12.48,6.87,9.44-3.49,12.48-6.87,5.69-6.33,11.25-6.33V81.52c-6.3,0-9.44,3.5-12.48,6.87s-5.68,6.33-11.25,6.33-8.32-3.07-11.25-6.33-6.18-6.87-12.48-6.87S522,85,519,88.39s-5.69,6.33-11.25,6.33-8.33-3.07-11.26-6.33-6.17-6.87-12.47-6.87-9.45,3.5-12.48,6.87-5.69,6.33-11.25,6.33S452,91.65,449,88.39s-6.18-6.87-12.48-6.87-9.43,3.5-12.47,6.87-5.69,6.33-11.25,6.33-8.33-3.07-11.25-6.33-6.18-6.87-12.48-6.87-9.44,3.5-12.48,6.87-5.69,6.33-11.25,6.33-8.33-3.07-11.25-6.33-6.18-6.87-12.48-6.87-9.44,3.5-12.48,6.87-5.69,6.33-11.25,6.33-8.33-3.07-11.25-6.33-6.18-6.87-12.48-6.87-9.45,3.5-12.48,6.87-5.69,6.33-11.25,6.33-8.33-3.07-11.26-6.33-6.18-6.87-12.48-6.87-9.44,3.5-12.48,6.87-5.69,6.33-11.25,6.33-8.33-3.07-11.26-6.33-6.18-6.87-12.48-6.87S189.8,85,186.76,88.39s-5.68,6.33-11.25,6.33-8.33-3.07-11.25-6.33-6.18-6.87-12.49-6.87-9.44,3.49-12.48,6.87-5.68,6.33-11.25,6.33-8.33-3.07-11.26-6.33-6.18-6.87-12.48-6.87S94.85,85,91.81,88.39s-5.69,6.33-11.26,6.33Z"/><path class="cls-6" d="M80.55,110.93c6.3,0,9.45-3.49,12.49-6.87s5.69-6.33,11.26-6.33,8.33,3.08,11.25,6.33,6.19,6.87,12.49,6.87,9.45-3.49,12.48-6.87,5.69-6.33,11.25-6.33,8.33,3.08,11.26,6.33,6.18,6.87,12.48,6.87,9.44-3.49,12.48-6.87,5.69-6.33,11.25-6.33,8.33,3.08,11.26,6.33,6.18,6.87,12.48,6.87,9.44-3.49,12.48-6.87,5.69-6.33,11.25-6.33,8.33,3.08,11.25,6.33,6.18,6.87,12.49,6.87,9.44-3.49,12.47-6.87,5.69-6.33,11.26-6.33,8.32,3.08,11.25,6.33,6.18,6.87,12.48,6.87,9.44-3.49,12.48-6.87,5.69-6.33,11.25-6.33,8.33,3.08,11.25,6.33,6.18,6.87,12.48,6.87,9.44-3.49,12.48-6.87,5.68-6.33,11.25-6.33,8.32,3.08,11.25,6.33,6.18,6.87,12.48,6.87,9.44-3.49,12.48-6.87,5.68-6.33,11.24-6.33,8.33,3.08,11.25,6.33,6.18,6.87,12.48,6.87,9.44-3.49,12.47-6.87,5.69-6.33,11.26-6.33,8.32,3.08,11.25,6.33,6.17,6.87,12.48,6.87,9.44-3.49,12.47-6.87,5.69-6.33,11.25-6.33,8.33,3.08,11.25,6.33,6.18,6.87,12.48,6.87,9.44-3.49,12.48-6.87,5.69-6.33,11.25-6.33V96.08c-6.3,0-9.44,3.5-12.48,6.88s-5.68,6.32-11.25,6.32-8.32-3.07-11.25-6.32-6.18-6.88-12.48-6.88S522,99.58,519,103s-5.69,6.32-11.25,6.32-8.33-3.07-11.26-6.32-6.17-6.88-12.47-6.88-9.45,3.5-12.48,6.88-5.69,6.32-11.25,6.32S452,106.21,449,103s-6.18-6.88-12.48-6.88-9.43,3.5-12.47,6.88-5.69,6.32-11.25,6.32-8.33-3.07-11.25-6.32-6.18-6.88-12.48-6.88-9.44,3.5-12.48,6.88-5.69,6.32-11.25,6.32S357,106.21,354.12,103s-6.18-6.88-12.48-6.88-9.44,3.5-12.48,6.88-5.69,6.32-11.25,6.32-8.33-3.07-11.25-6.32-6.18-6.88-12.48-6.88-9.45,3.5-12.48,6.88-5.69,6.32-11.25,6.32-8.33-3.07-11.26-6.32-6.18-6.88-12.48-6.88-9.44,3.5-12.48,6.88-5.69,6.32-11.25,6.32-8.33-3.07-11.26-6.32-6.18-6.88-12.48-6.88-9.44,3.5-12.48,6.88-5.68,6.32-11.25,6.32-8.33-3.07-11.25-6.32-6.18-6.88-12.49-6.88-9.44,3.5-12.48,6.88-5.68,6.32-11.25,6.32-8.33-3.07-11.26-6.32-6.18-6.88-12.48-6.88-9.45,3.5-12.49,6.88-5.69,6.32-11.26,6.32Z"/><path class="cls-6" d="M80.55,125.49c6.3,0,9.45-3.49,12.49-6.87s5.69-6.33,11.26-6.33,8.33,3.08,11.25,6.33,6.19,6.87,12.49,6.87,9.45-3.49,12.48-6.87,5.69-6.33,11.25-6.33,8.33,3.08,11.26,6.33,6.18,6.87,12.48,6.87S185,122,188,118.62s5.69-6.33,11.25-6.33,8.33,3.08,11.26,6.33,6.18,6.87,12.48,6.87,9.44-3.49,12.48-6.87,5.69-6.33,11.25-6.33,8.33,3.08,11.25,6.33,6.18,6.87,12.49,6.87,9.44-3.49,12.47-6.87,5.69-6.33,11.26-6.33,8.32,3.08,11.25,6.33,6.18,6.87,12.48,6.87,9.44-3.49,12.48-6.87,5.69-6.33,11.25-6.33,8.33,3.08,11.25,6.33,6.18,6.87,12.48,6.87,9.44-3.49,12.48-6.87,5.68-6.33,11.25-6.33,8.32,3.08,11.25,6.33,6.18,6.87,12.48,6.87,9.44-3.49,12.48-6.87,5.68-6.33,11.24-6.33,8.33,3.08,11.25,6.33,6.18,6.87,12.48,6.87,9.44-3.49,12.47-6.87,5.69-6.33,11.26-6.33,8.32,3.08,11.25,6.33,6.17,6.87,12.48,6.87,9.44-3.49,12.47-6.87,5.69-6.33,11.25-6.33,8.33,3.08,11.25,6.33,6.18,6.87,12.48,6.87,9.44-3.49,12.48-6.87,5.69-6.33,11.25-6.33v-1.65c-6.3,0-9.44,3.5-12.48,6.88s-5.68,6.32-11.25,6.32-8.32-3.07-11.25-6.32-6.18-6.88-12.48-6.88-9.44,3.5-12.47,6.88-5.69,6.32-11.25,6.32-8.33-3.07-11.26-6.32-6.17-6.88-12.47-6.88-9.45,3.5-12.48,6.88-5.69,6.32-11.25,6.32S452,120.77,449,117.52s-6.18-6.88-12.48-6.88-9.43,3.5-12.47,6.88-5.69,6.32-11.25,6.32-8.33-3.07-11.25-6.32-6.18-6.88-12.48-6.88-9.44,3.5-12.48,6.88-5.69,6.32-11.25,6.32-8.33-3.07-11.25-6.32-6.18-6.88-12.48-6.88-9.44,3.5-12.48,6.88-5.69,6.32-11.25,6.32-8.33-3.07-11.25-6.32-6.18-6.88-12.48-6.88-9.45,3.5-12.48,6.88-5.69,6.32-11.25,6.32-8.33-3.07-11.26-6.32-6.18-6.88-12.48-6.88-9.44,3.5-12.48,6.88-5.69,6.32-11.25,6.32-8.33-3.07-11.26-6.32-6.18-6.88-12.48-6.88-9.44,3.5-12.48,6.88-5.68,6.32-11.25,6.32-8.33-3.07-11.25-6.32-6.18-6.88-12.49-6.88-9.44,3.5-12.48,6.88-5.68,6.32-11.25,6.32-8.33-3.07-11.26-6.32-6.18-6.88-12.48-6.88-9.45,3.5-12.49,6.88-5.69,6.32-11.26,6.32Z"/><path class="cls-6" d="M80.55,140.05c6.3,0,9.45-3.49,12.49-6.87s5.69-6.33,11.26-6.33,8.33,3.08,11.25,6.33,6.19,6.87,12.49,6.87,9.45-3.49,12.48-6.87,5.69-6.33,11.25-6.33,8.33,3.08,11.26,6.33,6.18,6.87,12.48,6.87,9.44-3.49,12.48-6.87,5.69-6.33,11.25-6.33,8.33,3.08,11.26,6.33,6.18,6.87,12.48,6.87,9.44-3.49,12.48-6.87,5.69-6.33,11.25-6.33,8.33,3.08,11.25,6.33,6.18,6.87,12.49,6.87,9.44-3.49,12.47-6.87,5.69-6.33,11.26-6.33,8.32,3.08,11.25,6.33,6.18,6.87,12.48,6.87,9.44-3.49,12.48-6.87,5.69-6.33,11.25-6.33,8.33,3.08,11.25,6.33,6.18,6.87,12.48,6.87,9.44-3.49,12.48-6.87,5.68-6.33,11.25-6.33,8.32,3.08,11.25,6.33,6.18,6.87,12.48,6.87,9.44-3.49,12.48-6.87,5.68-6.33,11.24-6.33,8.33,3.08,11.25,6.33,6.18,6.87,12.48,6.87,9.44-3.49,12.47-6.87,5.69-6.33,11.26-6.33,8.32,3.08,11.25,6.33,6.17,6.87,12.48,6.87,9.44-3.49,12.47-6.87,5.69-6.33,11.25-6.33,8.33,3.08,11.25,6.33,6.18,6.87,12.48,6.87,9.44-3.49,12.48-6.87,5.69-6.33,11.25-6.33V125.2c-6.3,0-9.44,3.5-12.48,6.88s-5.68,6.32-11.25,6.32-8.32-3.07-11.25-6.32-6.18-6.88-12.48-6.88S522,128.7,519,132.08s-5.69,6.32-11.25,6.32-8.33-3.07-11.26-6.32-6.17-6.88-12.47-6.88-9.45,3.5-12.48,6.88-5.69,6.32-11.25,6.32S452,135.33,449,132.08s-6.18-6.88-12.48-6.88-9.43,3.5-12.47,6.88-5.69,6.32-11.25,6.32-8.33-3.07-11.25-6.32-6.18-6.88-12.48-6.88-9.44,3.5-12.48,6.88-5.69,6.32-11.25,6.32-8.33-3.07-11.25-6.32-6.18-6.88-12.48-6.88-9.44,3.5-12.48,6.88-5.69,6.32-11.25,6.32-8.33-3.07-11.25-6.32-6.18-6.88-12.48-6.88-9.45,3.5-12.48,6.88-5.69,6.32-11.25,6.32-8.33-3.07-11.26-6.32-6.18-6.88-12.48-6.88-9.44,3.5-12.48,6.88-5.69,6.32-11.25,6.32-8.33-3.07-11.26-6.32-6.18-6.88-12.48-6.88-9.44,3.5-12.48,6.88-5.68,6.32-11.25,6.32-8.33-3.07-11.25-6.32-6.18-6.88-12.49-6.88-9.44,3.5-12.48,6.88-5.68,6.32-11.25,6.32-8.33-3.07-11.26-6.32-6.18-6.88-12.48-6.88-9.45,3.5-12.49,6.88-5.69,6.32-11.26,6.32Z"/><path class="cls-6" d="M80.55,154.62c6.3,0,9.45-3.5,12.49-6.88s5.69-6.33,11.26-6.33,8.33,3.08,11.25,6.33,6.19,6.88,12.49,6.88,9.45-3.5,12.48-6.88,5.69-6.33,11.25-6.33,8.33,3.08,11.26,6.33,6.18,6.88,12.48,6.88,9.44-3.5,12.48-6.88,5.69-6.33,11.25-6.33,8.33,3.08,11.26,6.33,6.18,6.88,12.48,6.88,9.44-3.5,12.48-6.88,5.69-6.33,11.25-6.33,8.33,3.08,11.25,6.33,6.18,6.88,12.49,6.88,9.44-3.5,12.47-6.88,5.69-6.33,11.26-6.33,8.32,3.08,11.25,6.33,6.18,6.88,12.48,6.88,9.44-3.5,12.48-6.88,5.69-6.33,11.25-6.33,8.33,3.08,11.25,6.33,6.18,6.88,12.48,6.88,9.44-3.5,12.48-6.88,5.68-6.33,11.25-6.33,8.32,3.08,11.25,6.33,6.18,6.88,12.48,6.88,9.44-3.5,12.48-6.88,5.68-6.33,11.24-6.33,8.33,3.08,11.25,6.33,6.18,6.88,12.48,6.88,9.44-3.5,12.47-6.88,5.69-6.33,11.26-6.33,8.32,3.08,11.25,6.33,6.17,6.88,12.48,6.88,9.44-3.5,12.47-6.88,5.69-6.33,11.25-6.33,8.33,3.08,11.25,6.33,6.18,6.88,12.48,6.88,9.44-3.5,12.48-6.88,5.69-6.33,11.25-6.33v-1.65c-6.3,0-9.44,3.5-12.48,6.88S560.76,153,555.19,153s-8.32-3.08-11.25-6.33-6.18-6.88-12.48-6.88-9.44,3.5-12.47,6.88S513.3,153,507.74,153s-8.33-3.08-11.26-6.33-6.17-6.88-12.47-6.88-9.45,3.5-12.48,6.88S465.84,153,460.28,153,452,149.89,449,146.64s-6.18-6.88-12.48-6.88-9.43,3.5-12.47,6.88S418.39,153,412.83,153s-8.33-3.08-11.25-6.33-6.18-6.88-12.48-6.88-9.44,3.5-12.48,6.88S370.93,153,365.37,153s-8.33-3.08-11.25-6.33-6.18-6.88-12.48-6.88-9.44,3.5-12.48,6.88S323.47,153,317.91,153s-8.33-3.08-11.25-6.33-6.18-6.88-12.48-6.88-9.45,3.5-12.48,6.88S276,153,270.45,153s-8.33-3.08-11.26-6.33-6.18-6.88-12.48-6.88-9.44,3.5-12.48,6.88S228.54,153,223,153s-8.33-3.08-11.26-6.33-6.18-6.88-12.48-6.88-9.44,3.5-12.48,6.88S181.08,153,175.51,153s-8.33-3.08-11.25-6.33-6.18-6.88-12.49-6.88-9.44,3.5-12.48,6.88S133.61,153,128,153s-8.33-3.08-11.26-6.33-6.18-6.88-12.48-6.88-9.45,3.5-12.49,6.88S86.12,153,80.55,153Z"/><path class="cls-6" d="M80.55,169.18c6.3,0,9.45-3.5,12.49-6.88S98.73,156,104.3,156s8.33,3.07,11.25,6.32,6.19,6.88,12.49,6.88,9.45-3.5,12.48-6.88,5.69-6.32,11.25-6.32,8.33,3.07,11.26,6.32,6.18,6.88,12.48,6.88,9.44-3.5,12.48-6.88,5.69-6.32,11.25-6.32,8.33,3.07,11.26,6.32,6.18,6.88,12.48,6.88,9.44-3.5,12.48-6.88,5.69-6.32,11.25-6.32S255,159.05,258,162.3s6.18,6.88,12.49,6.88,9.44-3.5,12.47-6.88,5.69-6.32,11.26-6.32,8.32,3.07,11.25,6.32,6.18,6.88,12.48,6.88,9.44-3.5,12.48-6.88,5.69-6.32,11.25-6.32,8.33,3.07,11.25,6.32,6.18,6.88,12.48,6.88,9.44-3.5,12.48-6.88S383.53,156,389.1,156s8.32,3.07,11.25,6.32,6.18,6.88,12.48,6.88,9.44-3.5,12.48-6.88S431,156,436.55,156s8.33,3.07,11.25,6.32,6.18,6.88,12.48,6.88,9.44-3.5,12.47-6.88S478.44,156,484,156s8.32,3.07,11.25,6.32,6.17,6.88,12.48,6.88,9.44-3.5,12.47-6.88S525.9,156,531.46,156s8.33,3.07,11.25,6.32,6.18,6.88,12.48,6.88,9.44-3.5,12.48-6.88,5.69-6.32,11.25-6.32v-1.65c-6.3,0-9.44,3.49-12.48,6.87s-5.68,6.33-11.25,6.33-8.32-3.08-11.25-6.33-6.18-6.87-12.48-6.87S522,157.82,519,161.2s-5.69,6.33-11.25,6.33-8.33-3.08-11.26-6.33-6.17-6.87-12.47-6.87-9.45,3.49-12.48,6.87-5.69,6.33-11.25,6.33S452,164.45,449,161.2s-6.18-6.87-12.48-6.87-9.43,3.49-12.47,6.87-5.69,6.33-11.25,6.33-8.33-3.08-11.25-6.33-6.18-6.87-12.48-6.87-9.44,3.49-12.48,6.87-5.69,6.33-11.25,6.33-8.33-3.08-11.25-6.33-6.18-6.87-12.48-6.87-9.44,3.49-12.48,6.87-5.69,6.33-11.25,6.33-8.33-3.08-11.25-6.33-6.18-6.87-12.48-6.87-9.45,3.49-12.48,6.87-5.69,6.33-11.25,6.33-8.33-3.08-11.26-6.33-6.18-6.87-12.48-6.87-9.44,3.49-12.48,6.87-5.69,6.33-11.25,6.33-8.33-3.08-11.26-6.33-6.18-6.87-12.48-6.87-9.44,3.49-12.48,6.87-5.68,6.33-11.25,6.33-8.33-3.08-11.25-6.33-6.18-6.87-12.49-6.87-9.44,3.49-12.48,6.87-5.68,6.33-11.25,6.33-8.33-3.08-11.26-6.33-6.18-6.87-12.48-6.87-9.45,3.49-12.49,6.87-5.69,6.33-11.26,6.33Z"/><path class="cls-6" d="M80.55,183.74c6.3,0,9.45-3.5,12.49-6.88s5.69-6.32,11.26-6.32,8.33,3.07,11.25,6.32,6.19,6.88,12.49,6.88,9.45-3.5,12.48-6.88,5.69-6.32,11.25-6.32,8.33,3.07,11.26,6.32,6.18,6.88,12.48,6.88,9.44-3.5,12.48-6.88,5.69-6.32,11.25-6.32,8.33,3.07,11.26,6.32,6.18,6.88,12.48,6.88,9.44-3.5,12.48-6.88,5.69-6.32,11.25-6.32,8.33,3.07,11.25,6.32,6.18,6.88,12.49,6.88,9.44-3.5,12.47-6.88,5.69-6.32,11.26-6.32,8.32,3.07,11.25,6.32,6.18,6.88,12.48,6.88,9.44-3.5,12.48-6.88,5.69-6.32,11.25-6.32,8.33,3.07,11.25,6.32,6.18,6.88,12.48,6.88,9.44-3.5,12.48-6.88,5.68-6.32,11.25-6.32,8.32,3.07,11.25,6.32,6.18,6.88,12.48,6.88,9.44-3.5,12.48-6.88,5.68-6.32,11.24-6.32,8.33,3.07,11.25,6.32,6.18,6.88,12.48,6.88,9.44-3.5,12.47-6.88,5.69-6.32,11.26-6.32,8.32,3.07,11.25,6.32,6.17,6.88,12.48,6.88,9.44-3.5,12.47-6.88,5.69-6.32,11.25-6.32,8.33,3.07,11.25,6.32,6.18,6.88,12.48,6.88,9.44-3.5,12.48-6.88,5.69-6.32,11.25-6.32v-1.65c-6.3,0-9.44,3.49-12.48,6.87s-5.68,6.33-11.25,6.33-8.32-3.08-11.25-6.33-6.18-6.87-12.48-6.87S522,172.38,519,175.76s-5.69,6.33-11.25,6.33-8.33-3.08-11.26-6.33-6.17-6.87-12.47-6.87-9.45,3.49-12.48,6.87-5.69,6.33-11.25,6.33S452,179,449,175.76s-6.18-6.87-12.48-6.87-9.43,3.49-12.47,6.87-5.69,6.33-11.25,6.33-8.33-3.08-11.25-6.33-6.18-6.87-12.48-6.87-9.44,3.49-12.48,6.87-5.69,6.33-11.25,6.33S357,179,354.12,175.76s-6.18-6.87-12.48-6.87-9.44,3.49-12.48,6.87-5.69,6.33-11.25,6.33-8.33-3.08-11.25-6.33-6.18-6.87-12.48-6.87-9.45,3.49-12.48,6.87-5.69,6.33-11.25,6.33-8.33-3.08-11.26-6.33-6.18-6.87-12.48-6.87-9.44,3.49-12.48,6.87-5.69,6.33-11.25,6.33-8.33-3.08-11.26-6.33-6.18-6.87-12.48-6.87-9.44,3.49-12.48,6.87-5.68,6.33-11.25,6.33-8.33-3.08-11.25-6.33-6.18-6.87-12.49-6.87-9.44,3.49-12.48,6.87-5.68,6.33-11.25,6.33-8.33-3.08-11.26-6.33-6.18-6.87-12.48-6.87-9.45,3.49-12.49,6.87-5.69,6.33-11.26,6.33Z"/><path class="cls-6" d="M80.55,198.3c6.3,0,9.45-3.5,12.49-6.88s5.69-6.32,11.26-6.32,8.33,3.07,11.25,6.32,6.19,6.88,12.49,6.88,9.45-3.5,12.48-6.88,5.69-6.32,11.25-6.32,8.33,3.07,11.26,6.32,6.18,6.88,12.48,6.88,9.44-3.5,12.48-6.88,5.69-6.32,11.25-6.32,8.33,3.07,11.26,6.32,6.18,6.88,12.48,6.88,9.44-3.5,12.48-6.88,5.69-6.32,11.25-6.32,8.33,3.07,11.25,6.32,6.18,6.88,12.49,6.88,9.44-3.5,12.47-6.88,5.69-6.32,11.26-6.32,8.32,3.07,11.25,6.32,6.18,6.88,12.48,6.88,9.44-3.5,12.48-6.88,5.69-6.32,11.25-6.32,8.33,3.07,11.25,6.32,6.18,6.88,12.48,6.88,9.44-3.5,12.48-6.88,5.68-6.32,11.25-6.32,8.32,3.07,11.25,6.32,6.18,6.88,12.48,6.88,9.44-3.5,12.48-6.88,5.68-6.32,11.24-6.32,8.33,3.07,11.25,6.32,6.18,6.88,12.48,6.88,9.44-3.5,12.47-6.88,5.69-6.32,11.26-6.32,8.32,3.07,11.25,6.32,6.17,6.88,12.48,6.88,9.44-3.5,12.47-6.88,5.69-6.32,11.25-6.32,8.33,3.07,11.25,6.32,6.18,6.88,12.48,6.88,9.44-3.5,12.48-6.88,5.69-6.32,11.25-6.32v-1.65c-6.3,0-9.44,3.49-12.48,6.87s-5.68,6.33-11.25,6.33-8.32-3.08-11.25-6.33-6.18-6.87-12.48-6.87S522,186.94,519,190.32s-5.69,6.33-11.25,6.33-8.33-3.08-11.26-6.33-6.17-6.87-12.47-6.87-9.45,3.49-12.48,6.87-5.69,6.33-11.25,6.33S452,193.57,449,190.32s-6.18-6.87-12.48-6.87-9.43,3.49-12.47,6.87-5.69,6.33-11.25,6.33-8.33-3.08-11.25-6.33-6.18-6.87-12.48-6.87-9.44,3.49-12.48,6.87-5.69,6.33-11.25,6.33-8.33-3.08-11.25-6.33-6.18-6.87-12.48-6.87-9.44,3.49-12.48,6.87-5.69,6.33-11.25,6.33-8.33-3.08-11.25-6.33-6.18-6.87-12.48-6.87-9.45,3.49-12.48,6.87-5.69,6.33-11.25,6.33-8.33-3.08-11.26-6.33-6.18-6.87-12.48-6.87-9.44,3.49-12.48,6.87-5.69,6.33-11.25,6.33-8.33-3.08-11.26-6.33-6.18-6.87-12.48-6.87-9.44,3.49-12.48,6.87-5.68,6.33-11.25,6.33-8.33-3.08-11.25-6.33-6.18-6.87-12.49-6.87-9.44,3.49-12.48,6.87-5.68,6.33-11.25,6.33-8.33-3.08-11.26-6.33-6.18-6.87-12.48-6.87-9.45,3.49-12.49,6.87-5.69,6.33-11.26,6.33Z"/><path class="cls-6" d="M80.55,212.86c6.3,0,9.45-3.49,12.49-6.87s5.69-6.33,11.26-6.33,8.33,3.07,11.25,6.33,6.19,6.87,12.49,6.87,9.45-3.49,12.48-6.87,5.69-6.33,11.25-6.33S160.1,202.73,163,206s6.18,6.87,12.48,6.87S185,209.37,188,206s5.69-6.33,11.25-6.33,8.33,3.07,11.26,6.33,6.18,6.87,12.48,6.87,9.44-3.49,12.48-6.87,5.69-6.33,11.25-6.33S255,202.73,258,206s6.18,6.87,12.49,6.87,9.44-3.49,12.47-6.87,5.69-6.33,11.26-6.33,8.32,3.07,11.25,6.33,6.18,6.87,12.48,6.87,9.44-3.49,12.48-6.87,5.69-6.33,11.25-6.33,8.33,3.07,11.25,6.33,6.18,6.87,12.48,6.87,9.44-3.49,12.48-6.87,5.68-6.33,11.25-6.33,8.32,3.07,11.25,6.33,6.18,6.87,12.48,6.87,9.44-3.49,12.48-6.87,5.68-6.33,11.24-6.33,8.33,3.07,11.25,6.33,6.18,6.87,12.48,6.87,9.44-3.49,12.47-6.87,5.69-6.33,11.26-6.33,8.32,3.07,11.25,6.33,6.17,6.87,12.48,6.87,9.44-3.49,12.47-6.87,5.69-6.33,11.25-6.33,8.33,3.07,11.25,6.33,6.18,6.87,12.48,6.87,9.44-3.49,12.48-6.87,5.69-6.33,11.25-6.33V198c-6.3,0-9.44,3.49-12.48,6.87s-5.68,6.33-11.25,6.33-8.32-3.07-11.25-6.33S537.76,198,531.46,198,522,201.5,519,204.88s-5.69,6.33-11.25,6.33-8.33-3.07-11.26-6.33S490.31,198,484,198s-9.45,3.49-12.48,6.87-5.69,6.33-11.25,6.33S452,208.14,449,204.88,442.85,198,436.55,198s-9.43,3.49-12.47,6.87-5.69,6.33-11.25,6.33-8.33-3.07-11.25-6.33S395.4,198,389.1,198s-9.44,3.49-12.48,6.87-5.69,6.33-11.25,6.33-8.33-3.07-11.25-6.33S347.94,198,341.64,198s-9.44,3.49-12.48,6.87-5.69,6.33-11.25,6.33-8.33-3.07-11.25-6.33S300.48,198,294.18,198s-9.45,3.49-12.48,6.87-5.69,6.33-11.25,6.33-8.33-3.07-11.26-6.33S253,198,246.71,198s-9.44,3.49-12.48,6.87-5.69,6.33-11.25,6.33-8.33-3.07-11.26-6.33S205.54,198,199.24,198s-9.44,3.49-12.48,6.87-5.68,6.33-11.25,6.33-8.33-3.07-11.25-6.33S158.08,198,151.77,198s-9.44,3.49-12.48,6.87-5.68,6.33-11.25,6.33-8.33-3.07-11.26-6.33S110.6,198,104.3,198s-9.45,3.49-12.49,6.87-5.69,6.33-11.26,6.33Z"/><path class="cls-6" d="M80.55,227.42c6.3,0,9.45-3.49,12.49-6.87s5.69-6.33,11.26-6.33,8.33,3.07,11.25,6.33,6.19,6.87,12.49,6.87,9.45-3.49,12.48-6.87,5.69-6.33,11.25-6.33,8.33,3.07,11.26,6.33,6.18,6.87,12.48,6.87,9.44-3.49,12.48-6.87,5.69-6.33,11.25-6.33,8.33,3.07,11.26,6.33,6.18,6.87,12.48,6.87,9.44-3.49,12.48-6.87,5.69-6.33,11.25-6.33,8.33,3.07,11.25,6.33,6.18,6.87,12.49,6.87,9.44-3.49,12.47-6.87,5.69-6.33,11.26-6.33,8.32,3.07,11.25,6.33,6.18,6.87,12.48,6.87,9.44-3.49,12.48-6.87,5.69-6.33,11.25-6.33,8.33,3.07,11.25,6.33,6.18,6.87,12.48,6.87,9.44-3.49,12.48-6.87,5.68-6.33,11.25-6.33,8.32,3.07,11.25,6.33,6.18,6.87,12.48,6.87,9.44-3.49,12.48-6.87,5.68-6.33,11.24-6.33,8.33,3.07,11.25,6.33,6.18,6.87,12.48,6.87,9.44-3.49,12.47-6.87,5.69-6.33,11.26-6.33,8.32,3.07,11.25,6.33,6.17,6.87,12.48,6.87,9.44-3.49,12.47-6.87,5.69-6.33,11.25-6.33,8.33,3.07,11.25,6.33,6.18,6.87,12.48,6.87,9.44-3.49,12.48-6.87,5.69-6.33,11.25-6.33v-1.65c-6.3,0-9.44,3.49-12.48,6.87s-5.68,6.33-11.25,6.33-8.32-3.07-11.25-6.33-6.18-6.87-12.48-6.87S522,216.06,519,219.44s-5.69,6.33-11.25,6.33-8.33-3.07-11.26-6.33-6.17-6.87-12.47-6.87-9.45,3.49-12.48,6.87-5.69,6.33-11.25,6.33S452,222.7,449,219.44s-6.18-6.87-12.48-6.87-9.43,3.49-12.47,6.87-5.69,6.33-11.25,6.33-8.33-3.07-11.25-6.33-6.18-6.87-12.48-6.87-9.44,3.49-12.48,6.87-5.69,6.33-11.25,6.33-8.33-3.07-11.25-6.33-6.18-6.87-12.48-6.87-9.44,3.49-12.48,6.87-5.69,6.33-11.25,6.33-8.33-3.07-11.25-6.33-6.18-6.87-12.48-6.87-9.45,3.49-12.48,6.87-5.69,6.33-11.25,6.33-8.33-3.07-11.26-6.33-6.18-6.87-12.48-6.87-9.44,3.49-12.48,6.87-5.69,6.33-11.25,6.33-8.33-3.07-11.26-6.33-6.18-6.87-12.48-6.87-9.44,3.49-12.48,6.87-5.68,6.33-11.25,6.33-8.33-3.07-11.25-6.33-6.18-6.87-12.49-6.87-9.44,3.49-12.48,6.87-5.68,6.33-11.25,6.33-8.33-3.07-11.26-6.33-6.18-6.87-12.48-6.87-9.45,3.49-12.49,6.87-5.69,6.33-11.26,6.33Z"/><path class="cls-6" d="M80.55,242c6.3,0,9.45-3.49,12.49-6.87s5.69-6.33,11.26-6.33,8.33,3.07,11.25,6.33S121.74,242,128,242s9.45-3.49,12.48-6.87,5.69-6.33,11.25-6.33,8.33,3.07,11.26,6.33,6.18,6.87,12.48,6.87,9.44-3.49,12.48-6.87,5.69-6.33,11.25-6.33,8.33,3.07,11.26,6.33S216.68,242,223,242s9.44-3.49,12.48-6.87,5.69-6.33,11.25-6.33,8.33,3.07,11.25,6.33,6.18,6.87,12.49,6.87,9.44-3.49,12.47-6.87,5.69-6.33,11.26-6.33,8.32,3.07,11.25,6.33,6.18,6.87,12.48,6.87,9.44-3.49,12.48-6.87,5.69-6.33,11.25-6.33,8.33,3.07,11.25,6.33,6.18,6.87,12.48,6.87,9.44-3.49,12.48-6.87,5.68-6.33,11.25-6.33,8.32,3.07,11.25,6.33,6.18,6.87,12.48,6.87,9.44-3.49,12.48-6.87,5.68-6.33,11.24-6.33,8.33,3.07,11.25,6.33S454,242,460.28,242s9.44-3.49,12.47-6.87,5.69-6.33,11.26-6.33,8.32,3.07,11.25,6.33,6.17,6.87,12.48,6.87,9.44-3.49,12.47-6.87,5.69-6.33,11.25-6.33,8.33,3.07,11.25,6.33,6.18,6.87,12.48,6.87,9.44-3.49,12.48-6.87,5.69-6.33,11.25-6.33v-1.65c-6.3,0-9.44,3.49-12.48,6.87s-5.68,6.33-11.25,6.33-8.32-3.07-11.25-6.33-6.18-6.87-12.48-6.87S522,230.62,519,234s-5.69,6.33-11.25,6.33-8.33-3.07-11.26-6.33-6.17-6.87-12.47-6.87-9.45,3.49-12.48,6.87-5.69,6.33-11.25,6.33S452,237.26,449,234s-6.18-6.87-12.48-6.87-9.43,3.49-12.47,6.87-5.69,6.33-11.25,6.33-8.33-3.07-11.25-6.33-6.18-6.87-12.48-6.87-9.44,3.49-12.48,6.87-5.69,6.33-11.25,6.33S357,237.26,354.12,234s-6.18-6.87-12.48-6.87-9.44,3.49-12.48,6.87-5.69,6.33-11.25,6.33-8.33-3.07-11.25-6.33-6.18-6.87-12.48-6.87-9.45,3.49-12.48,6.87-5.69,6.33-11.25,6.33-8.33-3.07-11.26-6.33-6.18-6.87-12.48-6.87-9.44,3.49-12.48,6.87-5.69,6.33-11.25,6.33-8.33-3.07-11.26-6.33-6.18-6.87-12.48-6.87-9.44,3.49-12.48,6.87-5.68,6.33-11.25,6.33-8.33-3.07-11.25-6.33-6.18-6.87-12.49-6.87-9.44,3.49-12.48,6.87-5.68,6.33-11.25,6.33-8.33-3.07-11.26-6.33-6.18-6.87-12.48-6.87-9.45,3.49-12.49,6.87-5.69,6.33-11.26,6.33Z"/><path class="cls-6" d="M80.55,256.54c6.3,0,9.45-3.49,12.49-6.87s5.69-6.33,11.26-6.33,8.33,3.07,11.25,6.33,6.19,6.87,12.49,6.87,9.45-3.49,12.48-6.87,5.69-6.33,11.25-6.33,8.33,3.07,11.26,6.33,6.18,6.87,12.48,6.87,9.44-3.49,12.48-6.87,5.69-6.33,11.25-6.33,8.33,3.07,11.26,6.33,6.18,6.87,12.48,6.87,9.44-3.49,12.48-6.87,5.69-6.33,11.25-6.33,8.33,3.07,11.25,6.33,6.18,6.87,12.49,6.87,9.44-3.49,12.47-6.87,5.69-6.33,11.26-6.33,8.32,3.07,11.25,6.33,6.18,6.87,12.48,6.87,9.44-3.49,12.48-6.87,5.69-6.33,11.25-6.33,8.33,3.07,11.25,6.33,6.18,6.87,12.48,6.87,9.44-3.49,12.48-6.87,5.68-6.33,11.25-6.33,8.32,3.07,11.25,6.33,6.18,6.87,12.48,6.87,9.44-3.49,12.48-6.87,5.68-6.33,11.24-6.33,8.33,3.07,11.25,6.33,6.18,6.87,12.48,6.87,9.44-3.49,12.47-6.87,5.69-6.33,11.26-6.33,8.32,3.07,11.25,6.33,6.17,6.87,12.48,6.87,9.44-3.49,12.47-6.87,5.69-6.33,11.25-6.33,8.33,3.07,11.25,6.33,6.18,6.87,12.48,6.87,9.44-3.49,12.48-6.87,5.69-6.33,11.25-6.33v-1.65c-6.3,0-9.44,3.5-12.48,6.88s-5.68,6.32-11.25,6.32-8.32-3.07-11.25-6.32-6.18-6.88-12.48-6.88-9.44,3.5-12.47,6.88-5.69,6.32-11.25,6.32-8.33-3.07-11.26-6.32-6.17-6.88-12.47-6.88-9.45,3.5-12.48,6.88-5.69,6.32-11.25,6.32S452,251.82,449,248.57s-6.18-6.88-12.48-6.88-9.43,3.5-12.47,6.88-5.69,6.32-11.25,6.32-8.33-3.07-11.25-6.32-6.18-6.88-12.48-6.88-9.44,3.5-12.48,6.88-5.69,6.32-11.25,6.32-8.33-3.07-11.25-6.32-6.18-6.88-12.48-6.88-9.44,3.5-12.48,6.88-5.69,6.32-11.25,6.32-8.33-3.07-11.25-6.32-6.18-6.88-12.48-6.88-9.45,3.5-12.48,6.88-5.69,6.32-11.25,6.32-8.33-3.07-11.26-6.32-6.18-6.88-12.48-6.88-9.44,3.5-12.48,6.88-5.69,6.32-11.25,6.32-8.33-3.07-11.26-6.32-6.18-6.88-12.48-6.88-9.44,3.5-12.48,6.88-5.68,6.32-11.25,6.32-8.33-3.07-11.25-6.32-6.18-6.88-12.49-6.88-9.44,3.5-12.48,6.88-5.68,6.32-11.25,6.32-8.33-3.07-11.26-6.33-6.18-6.87-12.48-6.87-9.45,3.5-12.49,6.88-5.69,6.32-11.26,6.32Z"/><path class="cls-6" d="M80.55,271.1c6.3,0,9.45-3.49,12.49-6.87s5.69-6.33,11.26-6.33,8.33,3.08,11.25,6.33,6.19,6.87,12.49,6.87,9.45-3.49,12.48-6.87,5.69-6.33,11.25-6.33S160.1,261,163,264.23s6.18,6.87,12.48,6.87,9.44-3.49,12.48-6.87,5.69-6.33,11.25-6.33,8.33,3.08,11.26,6.33,6.18,6.87,12.48,6.87,9.44-3.49,12.48-6.87,5.69-6.33,11.25-6.33S255,261,258,264.23s6.18,6.87,12.49,6.87,9.44-3.49,12.47-6.87,5.69-6.33,11.26-6.33,8.32,3.08,11.25,6.33,6.18,6.87,12.48,6.87,9.44-3.49,12.48-6.87,5.69-6.33,11.25-6.33,8.33,3.08,11.25,6.33,6.18,6.87,12.48,6.87,9.44-3.49,12.48-6.87,5.68-6.33,11.25-6.33,8.32,3.08,11.25,6.33,6.18,6.87,12.48,6.87,9.44-3.49,12.48-6.87,5.68-6.33,11.24-6.33,8.33,3.08,11.25,6.33,6.18,6.87,12.48,6.87,9.44-3.49,12.47-6.87,5.69-6.33,11.26-6.33,8.32,3.08,11.25,6.33,6.17,6.87,12.48,6.87,9.44-3.49,12.47-6.87,5.69-6.33,11.25-6.33,8.33,3.08,11.25,6.33,6.18,6.87,12.48,6.87,9.44-3.49,12.48-6.87,5.69-6.33,11.25-6.33v-1.65c-6.3,0-9.44,3.5-12.48,6.88s-5.68,6.32-11.25,6.32-8.32-3.07-11.25-6.32-6.18-6.88-12.48-6.88-9.44,3.5-12.47,6.88-5.69,6.32-11.25,6.32-8.33-3.07-11.26-6.32-6.17-6.88-12.47-6.88-9.45,3.5-12.48,6.88-5.69,6.32-11.25,6.32S452,266.38,449,263.13s-6.18-6.88-12.48-6.88-9.43,3.5-12.47,6.88-5.69,6.32-11.25,6.32-8.33-3.07-11.25-6.32-6.18-6.88-12.48-6.88-9.44,3.5-12.48,6.88-5.69,6.32-11.25,6.32-8.33-3.07-11.25-6.32-6.18-6.88-12.48-6.88-9.44,3.5-12.48,6.88-5.69,6.32-11.25,6.32-8.33-3.07-11.25-6.32-6.18-6.88-12.48-6.88-9.45,3.5-12.48,6.88-5.69,6.32-11.25,6.32-8.33-3.07-11.26-6.32-6.18-6.88-12.48-6.88-9.44,3.5-12.48,6.88-5.69,6.32-11.25,6.32-8.33-3.07-11.26-6.32-6.18-6.88-12.48-6.88-9.44,3.5-12.48,6.88-5.68,6.32-11.25,6.32-8.33-3.07-11.25-6.32-6.18-6.88-12.49-6.88-9.44,3.5-12.48,6.88-5.68,6.32-11.25,6.32-8.33-3.07-11.26-6.32-6.18-6.88-12.48-6.88-9.45,3.5-12.49,6.88-5.69,6.32-11.26,6.32Z"/><path class="cls-6" d="M80.55,285.66c6.3,0,9.45-3.49,12.49-6.87s5.69-6.33,11.26-6.33,8.33,3.08,11.25,6.33,6.19,6.87,12.49,6.87,9.45-3.49,12.48-6.87,5.69-6.33,11.25-6.33,8.33,3.08,11.26,6.33,6.18,6.87,12.48,6.87,9.44-3.49,12.48-6.87,5.69-6.33,11.25-6.33,8.33,3.08,11.26,6.33,6.18,6.87,12.48,6.87,9.44-3.49,12.48-6.87,5.69-6.33,11.25-6.33,8.33,3.08,11.25,6.33,6.18,6.87,12.49,6.87,9.44-3.49,12.47-6.87,5.69-6.33,11.26-6.33,8.32,3.08,11.25,6.33,6.18,6.87,12.48,6.87,9.44-3.49,12.48-6.87,5.69-6.33,11.25-6.33,8.33,3.08,11.25,6.33,6.18,6.87,12.48,6.87,9.44-3.49,12.48-6.87,5.68-6.33,11.25-6.33,8.32,3.08,11.25,6.33,6.18,6.87,12.48,6.87,9.44-3.49,12.48-6.87,5.68-6.33,11.24-6.33,8.33,3.08,11.25,6.33,6.18,6.87,12.48,6.87,9.44-3.49,12.47-6.87,5.69-6.33,11.26-6.33,8.32,3.08,11.25,6.33,6.17,6.87,12.48,6.87,9.44-3.49,12.47-6.87,5.69-6.33,11.25-6.33,8.33,3.08,11.25,6.33,6.18,6.87,12.48,6.87,9.44-3.49,12.48-6.87,5.69-6.33,11.25-6.33v-1.65c-6.3,0-9.44,3.5-12.48,6.88S560.76,284,555.19,284s-8.32-3.07-11.25-6.32-6.18-6.88-12.48-6.88-9.44,3.5-12.47,6.88S513.3,284,507.74,284s-8.33-3.07-11.26-6.32-6.17-6.88-12.47-6.88-9.45,3.5-12.48,6.88S465.84,284,460.28,284,452,280.94,449,277.69s-6.18-6.88-12.48-6.88-9.43,3.5-12.47,6.88S418.39,284,412.83,284s-8.33-3.07-11.25-6.32-6.18-6.88-12.48-6.88-9.44,3.5-12.48,6.88S370.93,284,365.37,284s-8.33-3.07-11.25-6.32-6.18-6.88-12.48-6.88-9.44,3.5-12.48,6.88S323.47,284,317.91,284s-8.33-3.07-11.25-6.32-6.18-6.88-12.48-6.88-9.45,3.5-12.48,6.88S276,284,270.45,284s-8.33-3.07-11.26-6.32-6.18-6.88-12.48-6.88-9.44,3.5-12.48,6.88S228.54,284,223,284s-8.33-3.07-11.26-6.32-6.18-6.88-12.48-6.88-9.44,3.5-12.48,6.88S181.08,284,175.51,284s-8.33-3.07-11.25-6.32-6.18-6.88-12.49-6.88-9.44,3.5-12.48,6.88S133.61,284,128,284s-8.33-3.07-11.26-6.32-6.18-6.88-12.48-6.88-9.45,3.5-12.49,6.88S86.12,284,80.55,284Z"/><path class="cls-6" d="M80.55,300.23c6.3,0,9.45-3.5,12.49-6.88S98.73,287,104.3,287s8.33,3.08,11.25,6.33,6.19,6.88,12.49,6.88,9.45-3.5,12.48-6.88,5.69-6.33,11.25-6.33,8.33,3.08,11.26,6.33,6.18,6.88,12.48,6.88,9.44-3.5,12.48-6.88,5.69-6.33,11.25-6.33,8.33,3.08,11.26,6.33,6.18,6.88,12.48,6.88,9.44-3.5,12.48-6.88,5.69-6.33,11.25-6.33S255,290.1,258,293.35s6.18,6.88,12.49,6.88,9.44-3.5,12.47-6.88,5.69-6.33,11.26-6.33,8.32,3.08,11.25,6.33,6.18,6.88,12.48,6.88,9.44-3.5,12.48-6.88,5.69-6.33,11.25-6.33,8.33,3.08,11.25,6.33,6.18,6.88,12.48,6.88,9.44-3.5,12.48-6.88S383.53,287,389.1,287s8.32,3.08,11.25,6.33,6.18,6.88,12.48,6.88,9.44-3.5,12.48-6.88S431,287,436.55,287s8.33,3.08,11.25,6.33,6.18,6.88,12.48,6.88,9.44-3.5,12.47-6.88S478.44,287,484,287s8.32,3.08,11.25,6.33,6.17,6.88,12.48,6.88,9.44-3.5,12.47-6.88S525.9,287,531.46,287s8.33,3.08,11.25,6.33,6.18,6.88,12.48,6.88,9.44-3.5,12.48-6.88,5.69-6.33,11.25-6.33v-1.65c-6.3,0-9.44,3.5-12.48,6.88s-5.68,6.32-11.25,6.32-8.32-3.07-11.25-6.32-6.18-6.88-12.48-6.88-9.44,3.5-12.47,6.88-5.69,6.32-11.25,6.32-8.33-3.07-11.26-6.32-6.17-6.88-12.47-6.88-9.45,3.5-12.48,6.88-5.69,6.32-11.25,6.32S452,295.5,449,292.25s-6.18-6.88-12.48-6.88-9.43,3.5-12.47,6.88-5.69,6.32-11.25,6.32-8.33-3.07-11.25-6.32-6.18-6.88-12.48-6.88-9.44,3.5-12.48,6.88-5.69,6.32-11.25,6.32-8.33-3.07-11.25-6.32-6.18-6.88-12.48-6.88-9.44,3.5-12.48,6.88-5.69,6.32-11.25,6.32-8.33-3.07-11.25-6.32-6.18-6.88-12.48-6.88-9.45,3.5-12.48,6.88-5.69,6.32-11.25,6.32-8.33-3.07-11.26-6.32-6.18-6.88-12.48-6.88-9.44,3.5-12.48,6.88-5.69,6.32-11.25,6.32-8.33-3.07-11.26-6.32-6.18-6.88-12.48-6.88-9.44,3.5-12.48,6.88-5.68,6.32-11.25,6.32-8.33-3.07-11.25-6.32-6.18-6.88-12.49-6.88-9.44,3.5-12.48,6.88-5.68,6.32-11.25,6.32-8.33-3.07-11.26-6.32-6.18-6.88-12.48-6.88-9.45,3.5-12.49,6.88-5.69,6.32-11.26,6.32Z"/><path class="cls-6" d="M80.55,314.79c6.3,0,9.45-3.5,12.49-6.88s5.69-6.32,11.26-6.32,8.33,3.07,11.25,6.32,6.19,6.88,12.49,6.88,9.45-3.5,12.48-6.88,5.69-6.32,11.25-6.32,8.33,3.07,11.26,6.32,6.18,6.88,12.48,6.88,9.44-3.5,12.48-6.88,5.69-6.32,11.25-6.32,8.33,3.07,11.26,6.32,6.18,6.88,12.48,6.88,9.44-3.5,12.48-6.88,5.69-6.32,11.25-6.32,8.33,3.07,11.25,6.32,6.18,6.88,12.49,6.88,9.44-3.5,12.47-6.88,5.69-6.32,11.26-6.32,8.32,3.07,11.25,6.32,6.18,6.88,12.48,6.88,9.44-3.5,12.48-6.88,5.69-6.32,11.25-6.32,8.33,3.07,11.25,6.32,6.18,6.88,12.48,6.88,9.44-3.5,12.48-6.88,5.68-6.32,11.25-6.32,8.32,3.07,11.25,6.32,6.18,6.88,12.48,6.88,9.44-3.5,12.48-6.88,5.68-6.32,11.24-6.32,8.33,3.07,11.25,6.32,6.18,6.88,12.48,6.88,9.44-3.5,12.47-6.88,5.69-6.32,11.26-6.32,8.32,3.07,11.25,6.32,6.17,6.88,12.48,6.88,9.44-3.5,12.47-6.88,5.69-6.32,11.25-6.32,8.33,3.07,11.25,6.32,6.18,6.88,12.48,6.88,9.44-3.5,12.48-6.88,5.69-6.32,11.25-6.32v-1.66c-6.3,0-9.44,3.5-12.48,6.88s-5.68,6.33-11.25,6.33-8.32-3.08-11.25-6.33-6.18-6.88-12.48-6.88-9.44,3.5-12.47,6.88-5.69,6.33-11.25,6.33-8.33-3.08-11.26-6.33-6.17-6.88-12.47-6.88-9.45,3.5-12.48,6.88-5.69,6.33-11.25,6.33S452,310.06,449,306.81s-6.18-6.88-12.48-6.88-9.43,3.5-12.47,6.88-5.69,6.33-11.25,6.33-8.33-3.08-11.25-6.33-6.18-6.88-12.48-6.88-9.44,3.5-12.48,6.88-5.69,6.33-11.25,6.33-8.33-3.08-11.25-6.33-6.18-6.88-12.48-6.88-9.44,3.5-12.48,6.88-5.69,6.33-11.25,6.33-8.33-3.08-11.25-6.33-6.18-6.88-12.48-6.88-9.45,3.5-12.48,6.88-5.69,6.33-11.25,6.33-8.33-3.08-11.26-6.33-6.18-6.88-12.48-6.88-9.44,3.5-12.48,6.88-5.69,6.33-11.25,6.33-8.33-3.08-11.26-6.33-6.18-6.88-12.48-6.88-9.44,3.5-12.48,6.88-5.68,6.33-11.25,6.33-8.33-3.08-11.25-6.33-6.18-6.88-12.49-6.88-9.44,3.5-12.48,6.88-5.68,6.33-11.25,6.33-8.33-3.08-11.26-6.33-6.18-6.88-12.48-6.88-9.45,3.5-12.49,6.88-5.69,6.33-11.26,6.33Z"/><path class="cls-6" d="M80.55,329.35c6.3,0,9.45-3.5,12.49-6.88s5.69-6.32,11.26-6.32,8.33,3.07,11.25,6.32,6.19,6.88,12.49,6.88,9.45-3.5,12.48-6.88,5.69-6.32,11.25-6.32,8.33,3.07,11.26,6.32,6.18,6.88,12.48,6.88,9.44-3.5,12.48-6.88,5.69-6.32,11.25-6.32,8.33,3.07,11.26,6.32,6.18,6.88,12.48,6.88,9.44-3.5,12.48-6.88,5.69-6.32,11.25-6.32,8.33,3.07,11.25,6.32,6.18,6.88,12.49,6.88,9.44-3.5,12.47-6.88,5.69-6.32,11.26-6.32,8.32,3.07,11.25,6.32,6.18,6.88,12.48,6.88,9.44-3.5,12.48-6.88,5.69-6.32,11.25-6.32,8.33,3.07,11.25,6.32,6.18,6.88,12.48,6.88,9.44-3.5,12.48-6.88,5.68-6.32,11.25-6.32,8.32,3.07,11.25,6.32,6.18,6.88,12.48,6.88,9.44-3.5,12.48-6.88,5.68-6.32,11.24-6.32,8.33,3.07,11.25,6.32,6.18,6.88,12.48,6.88,9.44-3.5,12.47-6.88,5.69-6.32,11.26-6.32,8.32,3.07,11.25,6.32,6.17,6.88,12.48,6.88,9.44-3.5,12.47-6.88,5.69-6.32,11.25-6.32,8.33,3.07,11.25,6.32,6.18,6.88,12.48,6.88,9.44-3.5,12.48-6.88,5.69-6.32,11.25-6.32V314.5c-6.3,0-9.44,3.49-12.48,6.87s-5.68,6.33-11.25,6.33-8.32-3.08-11.25-6.33-6.18-6.87-12.48-6.87S522,318,519,321.37s-5.69,6.33-11.25,6.33-8.33-3.08-11.26-6.33-6.17-6.87-12.47-6.87-9.45,3.49-12.48,6.87-5.69,6.33-11.25,6.33S452,324.62,449,321.37s-6.18-6.87-12.48-6.87-9.43,3.49-12.47,6.87-5.69,6.33-11.25,6.33-8.33-3.08-11.25-6.33-6.18-6.87-12.48-6.87-9.44,3.49-12.48,6.87-5.69,6.33-11.25,6.33-8.33-3.08-11.25-6.33-6.18-6.87-12.48-6.87-9.44,3.49-12.48,6.87-5.69,6.33-11.25,6.33-8.33-3.08-11.25-6.33-6.18-6.87-12.48-6.87-9.45,3.49-12.48,6.87-5.69,6.33-11.25,6.33-8.33-3.08-11.26-6.33-6.18-6.87-12.48-6.87-9.44,3.49-12.48,6.87-5.69,6.33-11.25,6.33-8.33-3.08-11.26-6.33-6.18-6.87-12.48-6.87-9.44,3.49-12.48,6.87-5.68,6.33-11.25,6.33-8.33-3.08-11.25-6.33-6.18-6.87-12.49-6.87-9.44,3.49-12.48,6.87-5.68,6.33-11.25,6.33-8.33-3.08-11.26-6.33-6.18-6.87-12.48-6.87-9.45,3.49-12.49,6.87-5.69,6.33-11.26,6.33Z"/></g></g><g class="cls-7"><path class="cls-8" d="M249.32,99H183.65l-.7,25.27q5.37-1.86,14.72-1.86a69.2,69.2,0,0,1,23.14,3.71,51.43,51.43,0,0,1,18.11,10.78,49,49,0,0,1,11.8,17.16,58.27,58.27,0,0,1,4.21,22.6,61.11,61.11,0,0,1-4.79,24.81,53.12,53.12,0,0,1-13.21,18.43,57.14,57.14,0,0,1-20,11.47,77.37,77.37,0,0,1-25.12,3.94q-21.5,0-36-10.43T136,193.35L172.67,185a23.32,23.32,0,0,0,7.48,14.25q6.07,5.46,15.19,5.45,11.21,0,17.87-7t6.66-17.62q0-8.12-3.38-13.33a25.66,25.66,0,0,0-8.88-8.35,37.7,37.7,0,0,0-12.27-4.29A80.62,80.62,0,0,0,181.78,153a95.72,95.72,0,0,0-17.41,1.63,121.23,121.23,0,0,0-16.94,4.4L149.3,68.4h100Z"/><path class="cls-8" d="M269.88,150.47a168.07,168.07,0,0,1,2.69-29.68,86.35,86.35,0,0,1,9.58-27.35A56.83,56.83,0,0,1,301,73.38q11.93-7.75,30.38-7.76t30.38,7.76a56.92,56.92,0,0,1,18.81,20.06,86.6,86.6,0,0,1,9.58,27.35,165,165,0,0,1,0,59.35,86.42,86.42,0,0,1-9.58,27.35,56.83,56.83,0,0,1-18.81,20.06q-11.93,7.75-30.38,7.76T301,227.55a56.74,56.74,0,0,1-18.81-20.06,86.17,86.17,0,0,1-9.58-27.35A168,168,0,0,1,269.88,150.47Zm35.05,0q0,6.48.59,15.53a74.94,74.94,0,0,0,3.15,17.38,36.83,36.83,0,0,0,7.83,14.15q5.26,5.79,14.84,5.79,9.35,0,14.72-5.79A36.14,36.14,0,0,0,354,183.38,75.47,75.47,0,0,0,357.16,166q.58-9,.59-15.53t-.59-15.54A75.47,75.47,0,0,0,354,117.55a36.21,36.21,0,0,0-7.95-14.15q-5.37-5.79-14.72-5.79-9.58,0-14.84,5.79a36.91,36.91,0,0,0-7.83,14.15,74.94,74.94,0,0,0-3.15,17.38Q304.94,144,304.93,150.47Z"/><path class="cls-8" d="M408.47,95.71a26.51,26.51,0,0,1,2.15-10.63,28.34,28.34,0,0,1,5.85-8.7,27.46,27.46,0,0,1,38.82,0,28.31,28.31,0,0,1,5.84,8.7,27.24,27.24,0,0,1,0,21.26,28.15,28.15,0,0,1-5.84,8.69,27.43,27.43,0,0,1-38.82,0,28.17,28.17,0,0,1-5.85-8.69A26.57,26.57,0,0,1,408.47,95.71Zm40.63,0a12.87,12.87,0,0,0-3.83-9.39,13.28,13.28,0,0,0-18.78,18.77,13.33,13.33,0,0,0,18.78,0A12.83,12.83,0,0,0,449.1,95.71Zm44.24-30.09L505,72.1,447.57,172.18,437,166.24ZM478.46,142a26.37,26.37,0,0,1,2.15-10.63,28.17,28.17,0,0,1,5.85-8.69,27.43,27.43,0,0,1,38.82,0,28.15,28.15,0,0,1,5.84,8.69A26.38,26.38,0,0,1,533.28,142a26.89,26.89,0,0,1-2.16,10.7,27.89,27.89,0,0,1-5.84,8.76,27.42,27.42,0,0,1-38.82,0,27.91,27.91,0,0,1-5.85-8.76A26.88,26.88,0,0,1,478.46,142Zm40.63,0a12.87,12.87,0,0,0-3.83-9.39,13.36,13.36,0,0,0-18.79,0,12.86,12.86,0,0,0-3.82,9.39,13,13,0,0,0,3.82,9.53,13.36,13.36,0,0,0,18.79,0A13,13,0,0,0,519.09,142Z"/></g><path class="cls-9" d="M246.87,95.82H181.21l-.7,25.27q5.37-1.86,14.72-1.86a69.18,69.18,0,0,1,23.13,3.71,51.34,51.34,0,0,1,18.11,10.78,48.82,48.82,0,0,1,11.8,17.16,58.09,58.09,0,0,1,4.21,22.6,61.11,61.11,0,0,1-4.79,24.81,53.22,53.22,0,0,1-13.2,18.43,57.14,57.14,0,0,1-20,11.47,77.37,77.37,0,0,1-25.12,3.94q-21.51,0-36-10.43t-19.86-31.53l36.68-8.34a23.42,23.42,0,0,0,7.48,14.25,21.88,21.88,0,0,0,15.19,5.45q11.22,0,17.88-6.95T217.43,177q0-8.11-3.39-13.33a25.49,25.49,0,0,0-8.88-8.35A37.54,37.54,0,0,0,192.89,151a80.59,80.59,0,0,0-13.55-1.16,95.56,95.56,0,0,0-17.41,1.63,121.23,121.23,0,0,0-16.94,4.4l1.87-90.64h100Z"/><path class="cls-9" d="M267.43,147.29a169,169,0,0,1,2.69-29.68,86.6,86.6,0,0,1,9.58-27.35A56.92,56.92,0,0,1,298.51,70.2q11.92-7.76,30.38-7.76t30.38,7.76a56.74,56.74,0,0,1,18.81,20.06,86.61,86.61,0,0,1,9.59,27.35,165.63,165.63,0,0,1,0,59.35,86.43,86.43,0,0,1-9.59,27.35,56.66,56.66,0,0,1-18.81,20.06q-11.91,7.75-30.38,7.76t-30.38-7.76a56.83,56.83,0,0,1-18.81-20.06A86.42,86.42,0,0,1,270.12,177,169,169,0,0,1,267.43,147.29Zm35.06,0q0,6.48.58,15.53a75,75,0,0,0,3.16,17.38,36.81,36.81,0,0,0,7.82,14.15q5.26,5.79,14.84,5.79,9.35,0,14.73-5.79a36.13,36.13,0,0,0,7.94-14.15,75.47,75.47,0,0,0,3.15-17.38q.59-9,.59-15.53t-.59-15.54a75.47,75.47,0,0,0-3.15-17.38,36.2,36.2,0,0,0-7.94-14.15q-5.39-5.79-14.73-5.79-9.58,0-14.84,5.79a36.89,36.89,0,0,0-7.82,14.15,75,75,0,0,0-3.16,17.38Q302.49,140.8,302.49,147.29Z"/><path class="cls-9" d="M406,92.53a26.34,26.34,0,0,1,2.16-10.63A28.31,28.31,0,0,1,414,73.2a27.45,27.45,0,0,1,38.82,0,28.34,28.34,0,0,1,5.85,8.7,27.35,27.35,0,0,1,0,21.26,28.17,28.17,0,0,1-5.85,8.69,27.43,27.43,0,0,1-38.82,0,28.15,28.15,0,0,1-5.84-8.69A26.41,26.41,0,0,1,406,92.53Zm40.63,0A13.22,13.22,0,1,0,424,101.91a13.22,13.22,0,0,0,22.61-9.38ZM490.9,62.44l11.69,6.48L445.12,169l-10.57-5.94ZM476,138.77a26.38,26.38,0,0,1,2.16-10.63,28,28,0,0,1,5.84-8.69,27.42,27.42,0,0,1,38.82,0,28.17,28.17,0,0,1,5.85,8.69,26.54,26.54,0,0,1,2.15,10.63,27.05,27.05,0,0,1-2.15,10.7,27.91,27.91,0,0,1-5.85,8.76,27.43,27.43,0,0,1-38.82,0,27.72,27.72,0,0,1-5.84-8.76A26.89,26.89,0,0,1,476,138.77Zm40.63,0a12.87,12.87,0,0,0-3.83-9.39,13.35,13.35,0,0,0-18.78,0,12.87,12.87,0,0,0-3.83,9.39A13,13,0,0,0,494,148.3a13.35,13.35,0,0,0,18.78,0A13,13,0,0,0,516.64,138.77Z"/><rect class="cls-10" x="394.36" y="193.95" width="141.85" height="40.5" rx="20.25"/><rect class="cls-9" x="394.36" y="191.63" width="141.85" height="40.5" rx="20.25"/><rect class="cls-10" x="183.14" y="308.59" width="245.62" height="40.5" rx="20.25"/><rect class="cls-9" x="181.99" y="306.09" width="245.62" height="40.5" rx="20.25"/><path class="cls-3" d="M410.44,204.41h4.94a14,14,0,0,1,3.41.4,7.78,7.78,0,0,1,2.82,1.3,6.35,6.35,0,0,1,1.91,2.33,7.85,7.85,0,0,1,.7,3.48,7.07,7.07,0,0,1-.68,3.2,6.79,6.79,0,0,1-1.85,2.32,8.21,8.21,0,0,1-2.68,1.43,10.53,10.53,0,0,1-3.19.48h-5.38Zm3.29,11.91h1.71a8.88,8.88,0,0,0,2.12-.24,4.35,4.35,0,0,0,1.7-.77,3.67,3.67,0,0,0,1.13-1.41,5,5,0,0,0,.42-2.14,4.08,4.08,0,0,0-.42-1.91,3.75,3.75,0,0,0-1.11-1.35,5,5,0,0,0-1.63-.79,7.55,7.55,0,0,0-2-.26h-1.95Z"/><path class="cls-3" d="M426.42,204.41h3.29v14.94h-3.29Z"/><path class="cls-3" d="M440.1,208.06a2.33,2.33,0,0,0-1.09-.75,4,4,0,0,0-1.3-.24,3.81,3.81,0,0,0-.74.08,3.13,3.13,0,0,0-.72.27,1.64,1.64,0,0,0-.54.47,1.16,1.16,0,0,0-.22.72,1.2,1.2,0,0,0,.51,1,5.09,5.09,0,0,0,1.28.61c.51.17,1.06.33,1.65.5a6.67,6.67,0,0,1,1.66.72,3.92,3.92,0,0,1,1.28,1.25,3.76,3.76,0,0,1,.51,2.09,4.78,4.78,0,0,1-.47,2.17,4.41,4.41,0,0,1-1.26,1.54,5.33,5.33,0,0,1-1.83.91,8,8,0,0,1-2.21.29,7.88,7.88,0,0,1-2.7-.44,6.59,6.59,0,0,1-2.32-1.44l2.34-2.57a3.41,3.41,0,0,0,1.28,1,3.56,3.56,0,0,0,1.59.37,3.88,3.88,0,0,0,.82-.09,2.64,2.64,0,0,0,.73-.28,1.56,1.56,0,0,0,.53-.49,1.18,1.18,0,0,0,.2-.7,1.24,1.24,0,0,0-.52-1.06,4.86,4.86,0,0,0-1.29-.67c-.52-.18-1.09-.36-1.69-.55a7.34,7.34,0,0,1-1.69-.74,4.09,4.09,0,0,1-1.3-1.22,3.53,3.53,0,0,1-.51-2,4.48,4.48,0,0,1,.47-2.12,4.67,4.67,0,0,1,1.27-1.52,5.46,5.46,0,0,1,1.82-.91,7.27,7.27,0,0,1,2.13-.31,8.35,8.35,0,0,1,2.45.36,5.64,5.64,0,0,1,2.13,1.2Z"/><path class="cls-3" d="M454.6,208.29a3.33,3.33,0,0,0-1.2-.9,3.8,3.8,0,0,0-1.63-.32,4.11,4.11,0,0,0-1.72.36,4,4,0,0,0-1.37,1,4.68,4.68,0,0,0-.91,1.53,5.78,5.78,0,0,0,0,3.85,4.78,4.78,0,0,0,.9,1.52,4,4,0,0,0,1.34,1,4,4,0,0,0,1.65.35,3.74,3.74,0,0,0,1.8-.42,3.45,3.45,0,0,0,1.28-1.18l2.75,2a5.8,5.8,0,0,1-2.41,2,7.48,7.48,0,0,1-3,.63,9.17,9.17,0,0,1-3.23-.55,7.39,7.39,0,0,1-2.55-1.57,7.07,7.07,0,0,1-1.68-2.48,9.1,9.1,0,0,1,0-6.5,7.07,7.07,0,0,1,1.68-2.48,7.54,7.54,0,0,1,2.55-1.57,9.17,9.17,0,0,1,3.23-.55,7.53,7.53,0,0,1,1.32.12,6.44,6.44,0,0,1,1.35.37,5.59,5.59,0,0,1,1.28.67,5.14,5.14,0,0,1,1.1,1Z"/><path class="cls-3" d="M458.48,211.88a8.48,8.48,0,0,1,.6-3.25,7.07,7.07,0,0,1,1.68-2.48,7.54,7.54,0,0,1,2.55-1.57,9.76,9.76,0,0,1,6.46,0,7.49,7.49,0,0,1,2.56,1.57,7.19,7.19,0,0,1,1.67,2.48,9,9,0,0,1,0,6.5,7.19,7.19,0,0,1-1.67,2.48,7.34,7.34,0,0,1-2.56,1.57,9.76,9.76,0,0,1-6.46,0,7.39,7.39,0,0,1-2.55-1.57,7.07,7.07,0,0,1-1.68-2.48A8.44,8.44,0,0,1,458.48,211.88Zm3.42,0a5.43,5.43,0,0,0,.33,1.93,4.28,4.28,0,0,0,2.4,2.53,5.39,5.39,0,0,0,3.82,0,4.33,4.33,0,0,0,2.41-2.53,5.78,5.78,0,0,0,0-3.85,4.42,4.42,0,0,0-.94-1.53,4.31,4.31,0,0,0-1.47-1,5.25,5.25,0,0,0-3.82,0,4.31,4.31,0,0,0-1.47,1,4.4,4.4,0,0,0-.93,1.53A5.45,5.45,0,0,0,461.9,211.88Z"/><path class="cls-3" d="M489.44,213.59A7.16,7.16,0,0,1,489,216a5.22,5.22,0,0,1-1.19,1.94,5.53,5.53,0,0,1-2,1.29,8.36,8.36,0,0,1-5.47,0,5.35,5.35,0,0,1-3.17-3.23,7.4,7.4,0,0,1-.4-2.45v-9.18h3.3v9.05a3.57,3.57,0,0,0,.22,1.29,3,3,0,0,0,.62,1,3,3,0,0,0,1,.67,3,3,0,0,0,1.21.24,2.88,2.88,0,0,0,2.16-.91,3.22,3.22,0,0,0,.62-1,3.57,3.57,0,0,0,.22-1.29v-9.05h3.29Z"/><path class="cls-3" d="M492.48,204.41H497l6.35,10.38h0V204.41h3.3v14.94h-4.31l-6.52-10.63h0v10.63h-3.3Z"/><path class="cls-3" d="M512.58,207.32h-4.27v-2.91h11.82v2.91h-4.26v12h-3.29Z"/><path class="cls-11" d="M154.91,266.89a.74.74,0,0,0-.11.48v1a2.89,2.89,0,0,1,1.43.89,2.31,2.31,0,0,1,.56,1.55v6.71a5.42,5.42,0,0,1-1.48,4.17,8.46,8.46,0,0,1-9.26,0,5.49,5.49,0,0,1-1.46-4.17v-2.95a3,3,0,0,0-.9-2.43,4.29,4.29,0,0,0-2.83-.76,4.43,4.43,0,0,0-2.84.74,3,3,0,0,0-.88,2.45v1.79a3,3,0,0,1,1-.2,2.55,2.55,0,0,1,2,.77,3.4,3.4,0,0,1,.68,2.3q0,3.84-3.19,3.84c-1.89,0-2.84-1-2.84-3.13v-5.09a6.08,6.08,0,0,1,.91-3.53,4.58,4.58,0,0,1,2.81-1.76,5,5,0,0,0-1.1-.37l-.66-.77v-1.65a1.82,1.82,0,0,1,2.08-2h5.74v2.07h-5.29a.62.62,0,0,0-.45.12.68.68,0,0,0-.12.48v.86a3.38,3.38,0,0,1,2,1h.14a6.64,6.64,0,0,1,4.63,1.36,5.47,5.47,0,0,1,1.46,4.18v2.93a3,3,0,0,0,.9,2.46,4.34,4.34,0,0,0,2.82.75,4.41,4.41,0,0,0,2.86-.75,3,3,0,0,0,.9-2.46v-7a1.13,1.13,0,0,0-.94-1.22l-.63-1.05v-1.77a1.81,1.81,0,0,1,2-2h2.87v2.07h-2.41A.65.65,0,0,0,154.91,266.89Zm-16.39,11.32a.86.86,0,0,0-.73-.29h-.74v2.28c0,.62.24.94.71.94a.79.79,0,0,0,.76-.43,3.59,3.59,0,0,0,.21-1.45A1.85,1.85,0,0,0,138.52,278.21Z"/><path class="cls-11" d="M173.34,284.61v2.84q0,5-5.37,5a5.73,5.73,0,0,1-4-1.23,4.9,4.9,0,0,1-1.32-3.74V270.78a1.13,1.13,0,0,0-.94-1.22l-.63-1.05v-1.77a1.81,1.81,0,0,1,2-2H166v2.07h-2.41a.65.65,0,0,0-.46.12.74.74,0,0,0-.11.48v1a2.89,2.89,0,0,1,1.43.89,2.31,2.31,0,0,1,.56,1.55v17c0,1.75,1,2.62,3,2.62s3-.87,3-2.62v-3.12Z"/><path class="cls-11" d="M191.57,266a5.44,5.44,0,0,1,1.33,4.12V282.9h-2.36V270.07a3.41,3.41,0,0,0-.79-2.53,3.71,3.71,0,0,0-2.62-.77H182.3a.65.65,0,0,0-.46.12.74.74,0,0,0-.11.48v1a3,3,0,0,1,1.41.89,2.3,2.3,0,0,1,.55,1.55v6.69a5.39,5.39,0,0,1-1.51,4.19q-1.5,1.38-4.86,1.38t-4.86-1.38a5.39,5.39,0,0,1-1.51-4.19v-6.69a1.13,1.13,0,0,0-.94-1.22l-.62-1.05v-1.77a1.8,1.8,0,0,1,2-2h2.88v2.07h-2.42a.65.65,0,0,0-.46.12.74.74,0,0,0-.11.48v1a3,3,0,0,1,1.44.89,2.3,2.3,0,0,1,.55,1.55v2.16h8v-2.16a1.12,1.12,0,0,0-.91-1.22l-.65-1.05v-1.77a1.8,1.8,0,0,1,2-2h5.32C189.2,264.7,190.68,265.12,191.57,266Zm-11.18,14.26a3,3,0,0,0,.94-2.46v-2.84h-8v2.84a3,3,0,0,0,.92,2.46,6.7,6.7,0,0,0,6.16,0Z"/><path class="cls-11" d="M209.51,266.89a.69.69,0,0,0-.11.48v1a2.94,2.94,0,0,1,1.4.89,2.31,2.31,0,0,1,.56,1.55v6.69a5.39,5.39,0,0,1-1.51,4.19Q208.35,283,205,283t-4.86-1.38a5.39,5.39,0,0,1-1.51-4.19v-6.69a1.13,1.13,0,0,0-.94-1.22l-.62-1.05v-1.77a1.8,1.8,0,0,1,2-2H202v2.07h-2.41a.65.65,0,0,0-.46.12.74.74,0,0,0-.11.48v1a3,3,0,0,1,1.44.89,2.3,2.3,0,0,1,.55,1.55v7a3,3,0,0,0,.92,2.46,6.7,6.7,0,0,0,6.16,0,3,3,0,0,0,.94-2.46v-7a1.12,1.12,0,0,0-.91-1.22l-.65-1.05v-1.77a1.8,1.8,0,0,1,2-2h2.9v2.07H210A.65.65,0,0,0,209.51,266.89Z"/><path class="cls-11" d="M204,262.14l-.19-5.66h2.36l-.2,5.66Z"/><path class="cls-11" d="M216.19,261.64a2,2,0,0,1-.85-1.69,1.68,1.68,0,0,1,.4-1.25L217,259l.2.2v.31c0,.65.41,1,1.22,1a1.22,1.22,0,0,0,1.07-.57,2.79,2.79,0,0,0,.38-1.59,2.66,2.66,0,0,0-.86-2.15,4.53,4.53,0,0,0-2.12-.95v-.57l.59-1.14a4.73,4.73,0,0,1,3.25,1.61,4.87,4.87,0,0,1,1.11,3.2,4.28,4.28,0,0,1-.91,2.87,3.16,3.16,0,0,1-2.51,1A3.54,3.54,0,0,1,216.19,261.64Zm5.53,15.27a3.37,3.37,0,0,1,.67,2.26,4.76,4.76,0,0,1-.72,2.87,2.42,2.42,0,0,1-2.06,1c-1.69,0-2.53-1-2.53-3v-9.25a1.14,1.14,0,0,0-.94-1.22l-.63-1.05v-1.77a1.81,1.81,0,0,1,2.05-2h2.87v2.07H218a.62.62,0,0,0-.45.12.68.68,0,0,0-.12.48v1a3,3,0,0,1,1.44.89,2.31,2.31,0,0,1,.56,1.55v5.38a3.13,3.13,0,0,1,.51,0A2.2,2.2,0,0,1,221.72,276.91Zm-1.32,3.74a4.14,4.14,0,0,0,.17-1.42,1.83,1.83,0,0,0-.21-1,.79.79,0,0,0-.7-.3h-.42v2.39a1.14,1.14,0,0,0,.12.61.56.56,0,0,0,.47.19A.59.59,0,0,0,220.4,280.65Z"/><path class="cls-11" d="M226.26,264.7h13v2.07h-13Zm11.37,5.79a5.37,5.37,0,0,1,1.51,4.19v8.22h-2.36v-8.5a3,3,0,0,0-.94-2.46,6.6,6.6,0,0,0-6.15,0,3,3,0,0,0-.93,2.46v1.93a3,3,0,0,1,1-.2,2.54,2.54,0,0,1,2,.77,3.4,3.4,0,0,1,.68,2.3q0,3.84-3.18,3.84c-1.9,0-2.85-1-2.85-3.13v-5.23a5.37,5.37,0,0,1,1.51-4.19q1.5-1.38,4.86-1.38T237.63,270.49Zm-7.49,7.72a.84.84,0,0,0-.72-.29h-.74v2.28c0,.62.23.94.71.94a.77.77,0,0,0,.75-.43,3.59,3.59,0,0,0,.21-1.45A1.85,1.85,0,0,0,230.14,278.21Z"/><path class="cls-11" d="M249.51,276.91a3.42,3.42,0,0,1,.67,2.26,4.76,4.76,0,0,1-.73,2.87,2.41,2.41,0,0,1-2.06,1c-1.69,0-2.53-1-2.53-3v-9.25a1.13,1.13,0,0,0-.94-1.22l-.63-1.05v-1.77a1.81,1.81,0,0,1,2.05-2h2.87v2.07H245.8a.65.65,0,0,0-.46.12.74.74,0,0,0-.11.48v1a3,3,0,0,1,1.43.89,2.31,2.31,0,0,1,.56,1.55v5.38a3.13,3.13,0,0,1,.51,0A2.23,2.23,0,0,1,249.51,276.91Zm-1.33,3.74a4.09,4.09,0,0,0,.18-1.42,1.82,1.82,0,0,0-.22-1,.79.79,0,0,0-.7-.3H247v2.39a1,1,0,0,0,.13.61.53.53,0,0,0,.47.19A.58.58,0,0,0,248.18,280.65Z"/><path class="cls-11" d="M274.32,266.89a.68.68,0,0,0-.12.48v1a3,3,0,0,1,1.44.89,2.3,2.3,0,0,1,.55,1.55v6.71a5.46,5.46,0,0,1-1.47,4.17,6.65,6.65,0,0,1-4.64,1.38,6.58,6.58,0,0,1-4.62-1.38,5.46,5.46,0,0,1-1.47-4.17v-2.95a3,3,0,0,0-.89-2.43,4.31,4.31,0,0,0-2.83-.76,4.39,4.39,0,0,0-2.84.74,3,3,0,0,0-.88,2.45v1.79a2.91,2.91,0,0,1,1-.2,2.53,2.53,0,0,1,2,.77,3.35,3.35,0,0,1,.68,2.3q0,3.84-3.18,3.84c-1.9,0-2.85-1-2.85-3.13v-5.09a6.15,6.15,0,0,1,.91-3.53,4.61,4.61,0,0,1,2.82-1.76,5,5,0,0,0-1.11-.37l-.65-.77v-1.65a1.82,1.82,0,0,1,2.07-2H264v2.07h-5.29a.65.65,0,0,0-.46.12.74.74,0,0,0-.11.48v.86a3.4,3.4,0,0,1,2,1h.14a6.63,6.63,0,0,1,4.62,1.36,5.44,5.44,0,0,1,1.47,4.18v2.93a3,3,0,0,0,.89,2.46,4.37,4.37,0,0,0,2.83.75,4.43,4.43,0,0,0,2.86-.75,3,3,0,0,0,.89-2.46v-7a1.13,1.13,0,0,0-.93-1.22l-.63-1.05v-1.77a1.81,1.81,0,0,1,2.05-2h2.87v2.07h-2.42A.62.62,0,0,0,274.32,266.89Zm-16.4,11.32a.84.84,0,0,0-.72-.29h-.74v2.28c0,.62.24.94.71.94a.77.77,0,0,0,.75-.43,3.39,3.39,0,0,0,.22-1.45A1.76,1.76,0,0,0,257.92,278.21Z"/><path class="cls-11" d="M283.2,259.12a4.67,4.67,0,0,1,1.44,3.67v24.66a4.9,4.9,0,0,1-1.32,3.74,7.25,7.25,0,0,1-8.08,0,4.9,4.9,0,0,1-1.32-3.74v-2.84h2.36v3.12c0,1.75,1,2.62,3,2.62s3-.87,3-2.62V262.79q0-2.87-3.33-2.87a4.64,4.64,0,0,0-3.78,1.65l-1.68-.74v-5.26h2.22V259a6.16,6.16,0,0,1,3.73-1.14A5.44,5.44,0,0,1,283.2,259.12Z"/><path class="cls-11" d="M295.39,263v2.19a2.44,2.44,0,0,1-.47,1.66,2,2,0,0,1-1.55.53h-.28a3.36,3.36,0,0,1-.69-.3,2.3,2.3,0,0,0-.94-.3.67.67,0,0,0-.46.12.41.41,0,0,0-.13.34v1a5,5,0,0,1,1.92.93,2,2,0,0,1,.92,1.57V280c0,2-.85,3-2.56,3a2.39,2.39,0,0,1-2-1,4.84,4.84,0,0,1-.71-2.87,3.42,3.42,0,0,1,.66-2.26,2.2,2.2,0,0,1,1.79-.78,3.13,3.13,0,0,1,.51,0v-5.38a1,1,0,0,0-.6-.81,3.44,3.44,0,0,0-1.19-.41l-.63-1.05V266.4a1.69,1.69,0,0,1,.45-1.26,1.71,1.71,0,0,1,1.26-.44,3.65,3.65,0,0,1,1.56.38l.89.42c.05,0,.08,0,.08-.09V263Zm-4,17.93a1,1,0,0,0,.13-.61v-2.39h-.42a.79.79,0,0,0-.7.3,1.83,1.83,0,0,0-.21,1,4.14,4.14,0,0,0,.17,1.42.58.58,0,0,0,.56.46A.53.53,0,0,0,291.39,280.92Z"/><path class="cls-11" d="M304.05,276.91a3.42,3.42,0,0,1,.67,2.26A4.69,4.69,0,0,1,304,282a2.41,2.41,0,0,1-2.06,1c-1.69,0-2.53-1-2.53-3v-9.25a1.13,1.13,0,0,0-.94-1.22l-.62-1.05v-1.77a1.8,1.8,0,0,1,2-2h2.87v2.07h-2.41a.65.65,0,0,0-.46.12.74.74,0,0,0-.11.48v1a3,3,0,0,1,1.44.89,2.35,2.35,0,0,1,.55,1.55v5.38a3.13,3.13,0,0,1,.51,0A2.23,2.23,0,0,1,304.05,276.91Zm-1.32,3.74a4.41,4.41,0,0,0,.17-1.42,1.74,1.74,0,0,0-.22-1,.78.78,0,0,0-.69-.3h-.43v2.39a1,1,0,0,0,.13.61.53.53,0,0,0,.47.19A.6.6,0,0,0,302.73,280.65Z"/><path class="cls-11" d="M320,270.63a5.42,5.42,0,0,1,1.51,4.19v8.08h-2.36v-8.36a3,3,0,0,0-.93-2.46,4.91,4.91,0,0,0-3.08-.76,5,5,0,0,0-3.09.76,3,3,0,0,0-.92,2.46,9.33,9.33,0,0,0,.18,1.89c.12.58.29,1.21.5,1.89s.32,1.17.4,1.52a5.62,5.62,0,0,1,.11,1.1,1.92,1.92,0,0,1-.64,1.49A2.32,2.32,0,0,1,310,283a2.85,2.85,0,0,1-2.48-1.15,9.5,9.5,0,0,1-1.33-3.11l1.93-.66a9.7,9.7,0,0,0,.87,2.08,2,2,0,0,0,1,.94v-.2a8.5,8.5,0,0,0-.52-2.19c-.26-.91-.46-1.65-.58-2.21a8,8,0,0,1-.18-1.69,5.41,5.41,0,0,1,1.5-4.19q1.51-1.38,4.87-1.38T320,270.63Zm10.72-6.24a5.63,5.63,0,0,1-.6,2.58,6.93,6.93,0,0,1,.6,3.1V282.9h-2.36V270.07a3.41,3.41,0,0,0-.8-2.53,3.68,3.68,0,0,0-2.61-.77H308.58V264.7h16.33a8.11,8.11,0,0,1,3.41.6v-6.09a1,1,0,0,0-.14-.61.71.71,0,0,0-.54-.16h-.49l-.42-.42-.2-1.54a3.49,3.49,0,0,1,1.42-.28,2.69,2.69,0,0,1,2.08.72,3.39,3.39,0,0,1,.65,2.29Z"/><path class="cls-11" d="M348,266.89a.69.69,0,0,0-.11.48v1a4.76,4.76,0,0,1,1.74.94,1.89,1.89,0,0,1,.79,1.5V280c0,2-.85,3-2.53,3a2.43,2.43,0,0,1-2.07-1,4.76,4.76,0,0,1-.72-2.87,3.37,3.37,0,0,1,.67-2.26,2.2,2.2,0,0,1,1.77-.78,3.25,3.25,0,0,1,.57.06v-1.82h-7.79V280c0,2-.85,3-2.56,3a2.36,2.36,0,0,1-2-1,4.76,4.76,0,0,1-.72-2.87,3.42,3.42,0,0,1,.66-2.26,2.2,2.2,0,0,1,1.79-.78,3.45,3.45,0,0,1,.57.06v-5.41a.89.89,0,0,0-.49-.76,3.49,3.49,0,0,0-1.08-.46l-.62-1.05v-1.77a1.81,1.81,0,0,1,2.05-2h2.87v2.07H338.3a.61.61,0,0,0-.45.12.68.68,0,0,0-.12.48v1a5,5,0,0,1,1.77.94,1.89,1.89,0,0,1,.79,1.5v1.62h7.79v-1.62a.9.9,0,0,0-.48-.76,3.53,3.53,0,0,0-1.05-.46l-.66-1.05v-1.77a1.82,1.82,0,0,1,2.08-2h2.87v2.07h-2.42A.62.62,0,0,0,348,266.89Zm-10,14a1,1,0,0,0,.13-.61v-2.39h-.42a.79.79,0,0,0-.7.3,1.83,1.83,0,0,0-.21,1,4.14,4.14,0,0,0,.17,1.42.58.58,0,0,0,.56.46A.53.53,0,0,0,338,280.92Zm10.13,0a1.13,1.13,0,0,0,.13-.61v-2.39h-.43a.8.8,0,0,0-.7.3,1.83,1.83,0,0,0-.21,1,4.41,4.41,0,0,0,.17,1.42.59.59,0,0,0,.57.46A.55.55,0,0,0,348.1,280.92Z"/><path class="cls-11" d="M368.27,273.48v9.42h-2.36l-4-3.73-4,3.73h-2.36v-6.71a.89.89,0,0,0-.14-.61.68.68,0,0,0-.54-.16h-.51l-.4-.43-.2-1.53a3.46,3.46,0,0,1,1.39-.29,2.72,2.72,0,0,1,2.1.73,3.31,3.31,0,0,1,.66,2.29v4l3.59-3.27h.85l3.58,3.27v-6.46a4.5,4.5,0,0,0-.28-1.76,2.83,2.83,0,0,0-.86-1.11,8.34,8.34,0,0,1-4.06.91,5.75,5.75,0,0,1-4-1.21,4.31,4.31,0,0,1-1.29-3.31V263h2.36v4.24a2.45,2.45,0,0,0,.73,1.83,3,3,0,0,0,2.23.73,6.54,6.54,0,0,0,2.07-.29,4.53,4.53,0,0,1-.89-1.18,2.78,2.78,0,0,1-.33-1.29,2.32,2.32,0,0,1,.76-1.84,3.47,3.47,0,0,1,4.1,0,2.24,2.24,0,0,1,.8,1.82,4,4,0,0,1-.91,2.59A4.57,4.57,0,0,1,368.27,273.48Zm-4.41-6.88a.85.85,0,0,0-.19.57,1.66,1.66,0,0,0,.85,1.42,2.05,2.05,0,0,0,.6-1.42.86.86,0,0,0-.2-.57.7.7,0,0,0-.54-.22A.67.67,0,0,0,363.86,266.6Z"/><path class="cls-11" d="M360.91,262.14l-.2-5.66h2.36l-.2,5.66Z"/><path class="cls-11" d="M378.64,276.91a3.42,3.42,0,0,1,.67,2.26,4.76,4.76,0,0,1-.73,2.87,2.41,2.41,0,0,1-2.06,1c-1.69,0-2.53-1-2.53-3v-9.25a1.13,1.13,0,0,0-.94-1.22l-.63-1.05v-1.77a1.81,1.81,0,0,1,2.05-2h2.87v2.07h-2.41a.65.65,0,0,0-.46.12.74.74,0,0,0-.11.48v1a2.94,2.94,0,0,1,1.43.89,2.31,2.31,0,0,1,.56,1.55v5.38a3.13,3.13,0,0,1,.51,0A2.23,2.23,0,0,1,378.64,276.91Zm-1.33,3.74a4.09,4.09,0,0,0,.18-1.42,1.82,1.82,0,0,0-.22-1,.78.78,0,0,0-.69-.3h-.43v2.39a1,1,0,0,0,.13.61.53.53,0,0,0,.47.19A.58.58,0,0,0,377.31,280.65Z"/><path class="cls-11" d="M383.17,264.7h13v2.07h-13Zm11.38,5.79a5.4,5.4,0,0,1,1.5,4.19v8.22h-2.36v-8.5a3,3,0,0,0-.93-2.46,6.62,6.62,0,0,0-6.16,0,3,3,0,0,0-.92,2.46V278a5.61,5.61,0,0,1,1.93-1.42,5.38,5.38,0,0,1,2.13-.46h.43l.43.43-.37,1.53h-.74a4.65,4.65,0,0,0-3.81,2.39v2.48h-2.36v-8.22a5.4,5.4,0,0,1,1.5-4.19q1.51-1.38,4.86-1.38T394.55,270.49Z"/><path class="cls-11" d="M391,291.56a8.51,8.51,0,0,1-1.45-2.43,8,8,0,0,0-1.06-2.05,1.87,1.87,0,0,0-2.72,0,2.13,2.13,0,0,0-.51,1.48,2.05,2.05,0,0,0,.38,1.35,1.24,1.24,0,0,0,1,.44,1.48,1.48,0,0,0,.91-.23l.56.15.49,1.42a3.67,3.67,0,0,1-2.28.74,3.18,3.18,0,0,1-1.46-.4,3.29,3.29,0,0,1-1.27-1.27,4.29,4.29,0,0,1-.51-2.2,4,4,0,0,1,1.11-3,3.91,3.91,0,0,1,2.84-1.08,4.21,4.21,0,0,1,2.14.49,3.8,3.8,0,0,1,1.38,1.32,13.45,13.45,0,0,1,1.06,2.23c.49,1.29,1,1.93,1.59,1.93s.69-.32.69-1v-5h2.21v5a3,3,0,0,1-.78,2.14,2.65,2.65,0,0,1-2,.84A2.89,2.89,0,0,1,391,291.56Z"/><path class="cls-11" d="M421.9,266.89a.74.74,0,0,0-.11.48v1a3,3,0,0,1,1.44.89,2.3,2.3,0,0,1,.55,1.55v6.71a5.42,5.42,0,0,1-1.48,4.17,8.44,8.44,0,0,1-9.25,0,5.46,5.46,0,0,1-1.47-4.17v-2.95a3,3,0,0,0-.89-2.43,4.31,4.31,0,0,0-2.83-.76,4.44,4.44,0,0,0-2.85.74,3,3,0,0,0-.88,2.45v1.79a3,3,0,0,1,1-.2,2.54,2.54,0,0,1,2,.77,3.4,3.4,0,0,1,.68,2.3q0,3.84-3.19,3.84c-1.89,0-2.84-1-2.84-3.13v-5.09a6.08,6.08,0,0,1,.91-3.53,4.61,4.61,0,0,1,2.82-1.76,5.34,5.34,0,0,0-1.11-.37l-.66-.77v-1.65a1.82,1.82,0,0,1,2.08-2h5.74v2.07h-5.29a.62.62,0,0,0-.45.12.68.68,0,0,0-.12.48v.86a3.35,3.35,0,0,1,2,1h.15a6.63,6.63,0,0,1,4.62,1.36,5.47,5.47,0,0,1,1.46,4.18v2.93a3,3,0,0,0,.9,2.46,5.75,5.75,0,0,0,5.68,0,3,3,0,0,0,.9-2.46v-7a1.13,1.13,0,0,0-.94-1.22l-.62-1.05v-1.77a1.8,1.8,0,0,1,2-2h2.88v2.07h-2.42A.65.65,0,0,0,421.9,266.89Zm-16.39,11.32a.85.85,0,0,0-.73-.29h-.73v2.28c0,.62.23.94.71.94a.77.77,0,0,0,.75-.43,3.59,3.59,0,0,0,.21-1.45A1.85,1.85,0,0,0,405.51,278.21Z"/><path class="cls-11" d="M428.73,261.64a2,2,0,0,1-.85-1.69,1.72,1.72,0,0,1,.39-1.25l1.23.34.2.2v.31c0,.65.4,1,1.22,1A1.2,1.2,0,0,0,432,260a2.79,2.79,0,0,0,.39-1.59,2.63,2.63,0,0,0-.87-2.15,4.49,4.49,0,0,0-2.12-.95v-.57l.6-1.14a4.73,4.73,0,0,1,3.24,1.61,4.87,4.87,0,0,1,1.11,3.2,4.22,4.22,0,0,1-.91,2.87,3.14,3.14,0,0,1-2.5,1A3.54,3.54,0,0,1,428.73,261.64Zm5.53,15.27a3.42,3.42,0,0,1,.67,2.26,4.69,4.69,0,0,1-.73,2.87,2.41,2.41,0,0,1-2.06,1c-1.69,0-2.53-1-2.53-3v-9.25a1.13,1.13,0,0,0-.94-1.22l-.62-1.05v-1.77a1.8,1.8,0,0,1,2-2H433v2.07h-2.42a.65.65,0,0,0-.46.12.74.74,0,0,0-.11.48v1a3,3,0,0,1,1.44.89,2.3,2.3,0,0,1,.55,1.55v5.38a3.13,3.13,0,0,1,.51,0A2.23,2.23,0,0,1,434.26,276.91Zm-1.32,3.74a4.41,4.41,0,0,0,.17-1.42,1.74,1.74,0,0,0-.22-1,.78.78,0,0,0-.69-.3h-.43v2.39a1,1,0,0,0,.13.61.53.53,0,0,0,.47.19A.6.6,0,0,0,432.94,280.65Z"/><path class="cls-11" d="M438.8,264.7h13v2.07h-13Zm11.37,5.79a5.37,5.37,0,0,1,1.51,4.19v8.22h-2.36v-8.5a3,3,0,0,0-.94-2.46,6.62,6.62,0,0,0-6.16,0,3,3,0,0,0-.92,2.46v1.93a3,3,0,0,1,1-.2,2.53,2.53,0,0,1,2,.77,3.35,3.35,0,0,1,.69,2.3c0,2.56-1.07,3.84-3.19,3.84-1.89,0-2.84-1-2.84-3.13v-5.23a5.4,5.4,0,0,1,1.5-4.19q1.51-1.38,4.87-1.38T450.17,270.49Zm-7.49,7.72a.86.86,0,0,0-.73-.29h-.74v2.28c0,.62.24.94.71.94a.79.79,0,0,0,.76-.43,3.59,3.59,0,0,0,.21-1.45A1.85,1.85,0,0,0,442.68,278.21Z"/><path class="cls-11" d="M468.28,266.89a.74.74,0,0,0-.11.48v1a3,3,0,0,1,1.41.89,2.3,2.3,0,0,1,.55,1.55v6.69a5.43,5.43,0,0,1-1.5,4.19q-1.51,1.38-4.87,1.38c-2.23,0-3.86-.46-4.86-1.38a5.39,5.39,0,0,1-1.51-4.19v-6.69a1.13,1.13,0,0,0-.94-1.22l-.62-1.05v-1.77a1.81,1.81,0,0,1,2.05-2h2.87v2.07h-2.42a.61.61,0,0,0-.45.12.68.68,0,0,0-.12.48v1a3,3,0,0,1,1.44.89,2.3,2.3,0,0,1,.55,1.55v7a3,3,0,0,0,.93,2.46,6.68,6.68,0,0,0,6.15,0,3,3,0,0,0,.94-2.46v-7a1.12,1.12,0,0,0-.91-1.22l-.65-1.05v-1.77a1.81,1.81,0,0,1,2.05-2h2.9v2.07h-2.42A.65.65,0,0,0,468.28,266.89Z"/><path class="cls-11" d="M460.46,262.68l-.19-5.66h2.36l-.2,5.66Zm4.64,0-.2-5.66h2.36l-.2,5.66Z"/><path class="cls-11" d="M467.57,286.31h-.28l-.37-.43-.14-1a2.3,2.3,0,0,1,1.19-.28,2.12,2.12,0,0,1,1.61.61,2.53,2.53,0,0,1,.58,1.83v5.23h-2.22v-5.49C467.94,286.47,467.82,286.31,467.57,286.31Z"/><path class="cls-11" d="M480.5,276.91a3.42,3.42,0,0,1,.67,2.26,4.76,4.76,0,0,1-.73,2.87,2.41,2.41,0,0,1-2.06,1c-1.69,0-2.53-1-2.53-3v-9.25a1.13,1.13,0,0,0-.94-1.22l-.63-1.05v-1.77a1.81,1.81,0,0,1,2.05-2h2.87v2.07h-2.41a.65.65,0,0,0-.46.12.74.74,0,0,0-.11.48v1a2.94,2.94,0,0,1,1.43.89,2.31,2.31,0,0,1,.56,1.55v5.38a3.13,3.13,0,0,1,.51,0A2.23,2.23,0,0,1,480.5,276.91Zm-1.33,3.74a4.09,4.09,0,0,0,.18-1.42,1.82,1.82,0,0,0-.22-1,.78.78,0,0,0-.69-.3H478v2.39a1,1,0,0,0,.13.61.53.53,0,0,0,.47.19A.58.58,0,0,0,479.17,280.65Z"/><path class="cls-11" d="M515.5,265.94a5.48,5.48,0,0,1,1.47,4.19V282.9h-2.36v-13a3.13,3.13,0,0,0-.88-2.47,5.75,5.75,0,0,0-5.68,0,3.07,3.07,0,0,0-.89,2.47v13H504.8l-3.73-3.73-3.72,3.73H495v-13a3.07,3.07,0,0,0-.9-2.47,5.73,5.73,0,0,0-5.67,0,3.1,3.1,0,0,0-.88,2.47v6.48a2.91,2.91,0,0,1,1-.2,2.53,2.53,0,0,1,2,.77,3.35,3.35,0,0,1,.68,2.3q0,3.84-3.18,3.84c-1.9,0-2.84-1-2.84-3.13v-9.78a5.47,5.47,0,0,1,1.46-4.19,8.42,8.42,0,0,1,9.24,0,5.48,5.48,0,0,1,1.47,4.19V280.2l3.3-3.27h.85l3.3,3.27V270.13a5.47,5.47,0,0,1,1.46-4.19,8.42,8.42,0,0,1,9.24,0Zm-26.59,12.27a.84.84,0,0,0-.72-.29h-.74v2.28c0,.62.24.94.71.94a.77.77,0,0,0,.75-.43,3.39,3.39,0,0,0,.22-1.45A1.76,1.76,0,0,0,488.91,278.21ZM524.84,266c.9.83,1.34,2.21,1.34,4.12V282.9h-2.36V270.07a3.41,3.41,0,0,0-.8-2.53,3.68,3.68,0,0,0-2.61-.77H518V264.7h2.42C522.47,264.7,524,265.12,524.84,266Z"/><path class="cls-11" d="M513.7,285.51a3.46,3.46,0,0,1,1.45,3v3.81h-2.22v-3.81a1.67,1.67,0,0,0-.87-1.48,5.69,5.69,0,0,0-4.88,0,1.77,1.77,0,0,0-.88,1.58v3.69h-2.21l-3-2.9-3,2.9h-2.25v-3.69a1.76,1.76,0,0,0-.87-1.58,4.46,4.46,0,0,0-2.43-.56,5,5,0,0,0-2.39.48,1.52,1.52,0,0,0-.91,1.23,3.44,3.44,0,0,1,.8-.09,2.08,2.08,0,0,1,1.54.53A2,2,0,0,1,492,290a2.32,2.32,0,0,1-.67,1.72,2.42,2.42,0,0,1-1.78.66,2.6,2.6,0,0,1-1.9-.68,2.52,2.52,0,0,1-.71-1.93v-1.34a3.44,3.44,0,0,1,1.45-3,8.35,8.35,0,0,1,8.16,0,3.58,3.58,0,0,1,1.45,3v1.27l2.62-2.47h.82l2.62,2.47v-1.27a3.58,3.58,0,0,1,1.45-3,6.72,6.72,0,0,1,4.09-1.08A6.84,6.84,0,0,1,513.7,285.51Zm-24.26,3.84h-.31v.57c0,.53.21.8.62.8a.57.57,0,0,0,.44-.17.69.69,0,0,0,.16-.49C490.35,289.59,490.05,289.35,489.44,289.35Z"/><path class="cls-11" d="M532.2,270.31a3.13,3.13,0,0,1-.9-2.34,3.35,3.35,0,0,1,5.62-2.38,3.25,3.25,0,0,1,.89,2.38,3.33,3.33,0,0,1-5.61,2.34Zm0,11.41a3.21,3.21,0,0,1-.9-2.38,3.34,3.34,0,0,1,5.62-2.34,3.57,3.57,0,0,1,0,4.72,3.57,3.57,0,0,1-4.72,0ZM535.52,269a1.38,1.38,0,0,0,.36-1,1.51,1.51,0,0,0-.36-1.07,1.25,1.25,0,0,0-.95-.38,1.31,1.31,0,0,0-1,.38,1.51,1.51,0,0,0-.37,1.07,1.38,1.38,0,0,0,.37,1,1.3,1.3,0,0,0,1,.37A1.24,1.24,0,0,0,535.52,269Zm0,11.41a1.42,1.42,0,0,0,.36-1,1.48,1.48,0,0,0-.36-1.06,1.22,1.22,0,0,0-.95-.39,1.34,1.34,0,0,0-1,.37,1.69,1.69,0,0,0,0,2.11,1.34,1.34,0,0,0,1,.36A1.27,1.27,0,0,0,535.52,280.4Z"/><path class="cls-3" d="M201.35,322.7q0-3.58,4.19-3.58h2.38q4.19,0,4.18,3.58v1.79c0,.8-.49,1.2-1.49,1.2s-1.49-.4-1.49-1.2V322.7a1.06,1.06,0,0,0-1.2-1.2h-2.38a1.06,1.06,0,0,0-1.2,1.2v2.39c0,1,1.2,1.77,3.61,2.26l1.2.25a2.58,2.58,0,0,1,.58-.5,1.23,1.23,0,0,1,.7-.22h.48c.8,0,1.19.33,1.19,1v1.46c0,.57-.41,1-1.23,1.25l1.23.59v2.27q0,3.58-4.18,3.58h-2.38q-4.18,0-4.19-3.58v-1.79q0-1.2,1.5-1.2c1,0,1.49.4,1.49,1.2v1.79a1.06,1.06,0,0,0,1.2,1.19h2.38a1.06,1.06,0,0,0,1.2-1.19V330l-1.94-.45c-3.88-.91-5.83-2.42-5.83-4.5Z"/><path class="cls-3" d="M201.35,315.53v-.59a1.06,1.06,0,0,1,1.2-1.2h4.78a6.6,6.6,0,0,1,3.1.9l.84.44c.56.3.83.65.83,1.05s-.39.6-1.19.6h-8.36A1.06,1.06,0,0,1,201.35,315.53Z"/><path class="cls-3" d="M226.44,335.84c0,.79-.5,1.19-1.5,1.19s-1.49-.4-1.49-1.19V322.26l-2.39,2.1-2.39-2.1v12.38h.6a1.2,1.2,0,1,1,0,2.39h-1.79c-1.2,0-1.79-.4-1.79-1.19V320.31c0-.8.69-1.19,2.09-1.19a3.32,3.32,0,0,1,2.09,1.17l1.19,1.17,1.2-1.17a3.27,3.27,0,0,1,2.09-1.17c1.39,0,2.09.39,2.09,1.19Zm-9.56,3.58h1.79a8.82,8.82,0,0,1,6.44,2.23,4.71,4.71,0,0,0,3.44,1.35c1.38,0,2.07-.39,2.07-1.19a1.06,1.06,0,0,0-1.2-1.2,1.19,1.19,0,1,1,0-2.38q4.19,0,4.18,3.58t-5,3.58a7,7,0,0,1-5-1.79,6.76,6.76,0,0,0-4.84-1.79h-1.79a1.2,1.2,0,0,1,0-2.39Zm13.74-3.58V322.7q0-1.2-1.32-1.2h-1.07a1.19,1.19,0,1,1,0-2.38h1.07q4.3,0,4.3,3.58v13.14c0,.79-.49,1.19-1.49,1.19S230.62,336.63,230.62,335.84Z"/><path class="cls-3" d="M237.19,320.31a1,1,0,0,1,1.19-1.19h8.36a1.19,1.19,0,1,1,0,2.38h-8.36A1,1,0,0,1,237.19,320.31Zm10.75,13.14c0,2.39-1.4,3.58-4.18,3.58h-2.39q-4.19,0-4.18-3.58v-8.36c0-.8.49-1.2,1.49-1.2s1.49.4,1.49,1.2v8.36a1.06,1.06,0,0,0,1.2,1.19h2.39a1.05,1.05,0,0,0,1.19-1.19v-7.17h-.6a1.2,1.2,0,0,1,0-2.39h1.79q1.8,0,1.8,1.2Z"/><path class="cls-3" d="M251.52,335.84V322.7c0-.8-.44-1.2-1.31-1.2h-.48a1.19,1.19,0,1,1,0-2.38h.48c2.86,0,4.3,1.19,4.3,3.58v13.14c0,.79-.5,1.19-1.5,1.19S251.52,336.63,251.52,335.84Z"/><path class="cls-3" d="M258.09,320.31c0-.8.5-1.19,1.49-1.19s1.5.39,1.5,1.19v13.14a1.05,1.05,0,0,0,1.19,1.19h2.39a1.05,1.05,0,0,0,1.19-1.19V320.31c0-.8.5-1.19,1.5-1.19s1.49.39,1.49,1.19v13.14q0,3.58-4.18,3.58h-2.39q-4.18,0-4.18-3.58Z"/><path class="cls-3" d="M263.46,317.32a1.05,1.05,0,0,1-1.19-1.19v-4.78a1.2,1.2,0,0,1,2.39,0v4.78A1.05,1.05,0,0,1,263.46,317.32Z"/><path class="cls-3" d="M283.17,335.84c0,.79-.5,1.19-1.49,1.19s-1.49-.4-1.49-1.19V322.26l-2.39,2.1-2.39-2.1v12.38H276a1.2,1.2,0,1,1,0,2.39h-1.79c-1.19,0-1.79-.4-1.79-1.19V320.31c0-.8.7-1.19,2.09-1.19a3.27,3.27,0,0,1,2.09,1.17l1.2,1.17,1.19-1.17a3.3,3.3,0,0,1,2.09-1.17c1.39,0,2.09.39,2.09,1.19Z"/><path class="cls-3" d="M280.78,314.29v-1.15a1.2,1.2,0,0,1,2.39,0v3c0,.4-.4.6-1.19.6h-8.36a1.06,1.06,0,0,1-1.2-1.2v-.59a1.06,1.06,0,0,1,1.2-1.2h4.77A5.94,5.94,0,0,1,280.78,314.29Z"/><path class="cls-3" d="M302.55,333.9a1.57,1.57,0,1,1,0,3.13h-7.49a1.68,1.68,0,0,1-1.78-1.78V335c0-3.57,1.24-5.55,4.84-6.8,2.1-.73,2.71-1.39,2.71-2.62a1.67,1.67,0,0,0-1.83-1.85,3,3,0,0,0-2.35,1.39,1.69,1.69,0,0,1-1.39.71,1.62,1.62,0,0,1-1.72-1.71,1.88,1.88,0,0,1,.32-1A5.84,5.84,0,0,1,299,320.6c3.45,0,5.41,1.8,5.41,5,0,2.82-1.08,4.31-4.31,5.34-2.35.76-3.11,1.56-3.23,3Z"/><path class="cls-3" d="M306.75,326.37c0-3.62,2.18-5.77,5.83-5.77s5.82,2.15,5.82,5.77v5.18c0,3.62-2.18,5.78-5.82,5.78s-5.83-2.16-5.83-5.78Zm8.12.12c0-1.76-.83-2.76-2.29-2.76s-2.3,1-2.3,2.76v4.94c0,1.76.83,2.76,2.3,2.76s2.29-1,2.29-2.76Z"/><path class="cls-3" d="M328.13,336.62v.71a1.5,1.5,0,0,1-1.61,1.68,1.52,1.52,0,0,1-1.62-1.68v-.71a5.41,5.41,0,0,1-3.71-2,1.76,1.76,0,0,1-.4-1.08,1.62,1.62,0,0,1,1.72-1.71,1.75,1.75,0,0,1,1.32.61,3.63,3.63,0,0,0,3,1.2,1.61,1.61,0,0,0,1.78-1.62c0-1-.66-1.37-2.74-1.61-3.47-.39-4.89-1.71-4.89-4.55a4.4,4.4,0,0,1,3.91-4.5v-.49a1.53,1.53,0,0,1,1.62-1.69,1.51,1.51,0,0,1,1.61,1.69v.46a5,5,0,0,1,3.18,1.67,1.69,1.69,0,0,1-1.34,2.74,2.1,2.1,0,0,1-1.28-.54,3.43,3.43,0,0,0-2.34-.86c-1.13,0-1.84.59-1.84,1.52s.69,1.27,2.62,1.47c3.55.34,5,1.71,5,4.69A4.58,4.58,0,0,1,328.13,336.62Z"/><path class="cls-3" d="M344.94,320.31v14.33a1.2,1.2,0,1,1,0,2.39h-1.19c-1.2,0-1.79-.4-1.79-1.19V320.31c0-.8.49-1.19,1.49-1.19S344.94,319.51,344.94,320.31Z"/><path class="cls-3" d="M348.52,322.7q0-3.58,4.19-3.58h2.38q4.19,0,4.18,3.58v1.79c0,.8-.49,1.2-1.49,1.2s-1.49-.4-1.49-1.2V322.7a1.06,1.06,0,0,0-1.2-1.2h-2.38a1.06,1.06,0,0,0-1.2,1.2v2.39c0,1,1.2,1.77,3.61,2.26l1.2.25a2.58,2.58,0,0,1,.58-.5,1.23,1.23,0,0,1,.7-.22h.48c.8,0,1.19.33,1.19,1v1.46c0,.57-.41,1-1.23,1.25l1.23.59v2.27q0,3.58-4.18,3.58h-2.38q-4.18,0-4.19-3.58v-1.79q0-1.2,1.5-1.2c1,0,1.49.4,1.49,1.2v1.79a1.06,1.06,0,0,0,1.2,1.19h2.38a1.06,1.06,0,0,0,1.2-1.19V330l-1.94-.45c-3.88-.91-5.83-2.42-5.83-4.5Zm14.94,19.55V320.31c0-.8.49-1.19,1.49-1.19s1.49.39,1.49,1.19V344.2c0,.79-.7,1.19-2.09,1.19a3.3,3.3,0,0,1-2.09-1.17l-.9-.88-.89.88a3.3,3.3,0,0,1-2.09,1.17c-1.39,0-2.09-.4-2.09-1.19v-3.59a1.19,1.19,0,1,1,0-2.38h1.49c1,0,1.49.39,1.49,1.19v2.83l2.09-1.84Z"/><path class="cls-3" d="M364.05,314.29v-1.15a1.2,1.2,0,0,1,2.39,0v3c0,.4-.4.6-1.19.6h-8.36a1.06,1.06,0,0,1-1.2-1.2v-.59a1.06,1.06,0,0,1,1.2-1.2h4.77A5.94,5.94,0,0,1,364.05,314.29Z"/><path class="cls-3" d="M373.37,323.89q-3.35,0-3.35-3.58v-1.19q0-1.2,1.5-1.2c1,0,1.49.4,1.49,1.2v1.19c0,.8.6,1.19,1.79,1.19h2.39c0-1.59.6-2.38,1.79-2.38s1.79.79,1.79,2.38a2.14,2.14,0,0,1-.35,1.19,2.32,2.32,0,0,1-1,.88,2.87,2.87,0,0,1-.67.25l2,1.27v10.75c0,.79-.69,1.19-2.09,1.19a3.32,3.32,0,0,1-2.09-1.17l-1.19-1.17-1.2,1.17a3.27,3.27,0,0,1-2.09,1.17c-1.39,0-2.09-.4-2.09-1.19v-9.56c0-.79.5-1.19,1.5-1.19s1.49.4,1.49,1.19v7.61l2.39-2.1,2.39,2.1v-10Z"/><path class="cls-3" d="M387.34,320.31v14.33a1.2,1.2,0,1,1,0,2.39h-1.19c-1.2,0-1.79-.4-1.79-1.19V320.31c0-.8.49-1.19,1.49-1.19S387.34,319.51,387.34,320.31Z"/><path class="cls-3" d="M390.93,322.7q0-3.58,4.18-3.58h2.39c2.78,0,4.18,1.19,4.18,3.58v1.79q0,1.2-1.5,1.2c-1,0-1.49-.4-1.49-1.2V322.7a1.06,1.06,0,0,0-1.19-1.2h-2.39a1.06,1.06,0,0,0-1.2,1.2v2.39c0,1,1.2,1.77,3.61,2.26l1.21.25a2.76,2.76,0,0,1,.57-.5,1.23,1.23,0,0,1,.7-.22h.48c.8,0,1.2.33,1.2,1v1.46c0,.57-.41,1-1.23,1.25l1.23.59v2.27c0,2.39-1.4,3.58-4.18,3.58h-2.39q-4.19,0-4.18-3.58v-1.79c0-.8.49-1.2,1.49-1.2s1.49.4,1.49,1.2v1.79a1.06,1.06,0,0,0,1.2,1.19h2.39a1.05,1.05,0,0,0,1.19-1.19V330l-1.94-.45c-3.88-.91-5.82-2.42-5.82-4.5Z"/><path class="cls-3" d="M405.26,335.84V322.7q0-1.2-1.32-1.2h-.47a1.19,1.19,0,1,1,0-2.38h.47q4.31,0,4.31,3.58v13.14c0,.79-.5,1.19-1.5,1.19S405.26,336.63,405.26,335.84Zm3-23.29v4.77q0,1.2-1.5,1.2c-1,0-1.49-.4-1.49-1.2v-3.58a1.2,1.2,0,1,1,0-2.39h1.79A1.06,1.06,0,0,1,408.25,312.55Z"/><line class="cls-12" x1="741.88" y1="359.46" x2="869.87" y2="359.46"/><line class="cls-13" x1="678.22" y1="10.26" x2="678.22" y2="403.54"/><path class="cls-9" d="M951.76,44V369.77a44,44,0,0,1-44,44H677.22V0H907.73A44,44,0,0,1,951.76,44Z"/><path class="cls-3" d="M899.34,404.46H677.22v-1.84H899.34a41.24,41.24,0,0,0,41.2-41.2v-309a41.25,41.25,0,0,0-41.2-41.21H677.22V9.34H899.34a43.09,43.09,0,0,1,43,43v309A43.09,43.09,0,0,1,899.34,404.46Z"/><path class="cls-9" d="M653.07,404.46H53.42a43.08,43.08,0,0,1-43-43v-309a43.08,43.08,0,0,1,43-43h623.8v1.84H53.42a41.24,41.24,0,0,0-41.2,41.2v309a41.24,41.24,0,0,0,41.2,41.2H653.07Z"/><line class="cls-13" x1="299.7" y1="403.54" x2="677.22" y2="403.54"/><g id="Ellipse_1" data-name="Ellipse 1"><ellipse class="cls-3" cx="815.49" cy="100.06" rx="48.55" ry="48.61"/></g><path class="cls-14" d="M788.89,105.65a22.52,22.52,0,0,0-.71,5.88c0,.42.06.81.14,1.59.26,2.45.46,2.61.57,2.67,1.05.59,4.55-1.39,4.25-2.23-.61-1.71-16.41,3.19-19.38-1-1-1.37-.58-3.75.71-4.46s3.43.34,4,.61c6.44,2.92,26.42,1.37,50.81-.61,9.07-.73,16.58-1.48,21.51,2.64a11.4,11.4,0,0,1,3.07,4.06"/><path class="cls-15" d="M775.33,101.34c-.18.73-1,3.84-.19,4.19s2.16-1.47,3-2.75c3.49-5.25,1.72-11,3-11.44,1.79-.59,6.71,8,5.94,8.56-.51.39-3.85-2.33-3.44-3.25.61-1.38,10.12.12,10.51,2.94s-8.2,6.23-8.51,5.76c-.18-.28,2.63-1.42,4.76-4.82,1.75-2.8,1.55-5.26,3.37-8.13a16.44,16.44,0,0,1,2.32-2.88"/><path class="cls-15" d="M800.71,107.17c-.64-5.13,1.89-9,4.6-9.34,1.79-.25,3.61,1,4.6,2.3,2.07,2.77,1.56,7.36.13,7.85C807,109,797.76,91.47,799.49,90.12c.79-.61,2.89,2.92,6.76,2.71,3.23-.17,6.25-2.86,7.85-1.76a7.55,7.55,0,0,1,1.08,1,8.18,8.18,0,0,1,1.22,1.62"/><path class="cls-15" d="M845.33,98.14c.69,5.71,0,7.37-.81,7.71s-2.53-.59-2.55-1.45,2.12-1.74,2.27-1.8c2.39-.8,3.73.47,8,1,2.48.28,4.83.52,5.41-.54s-.63-2.46-.81-2.71c-1.3-1.72-2.76-1.53-6.57-3.64a7.29,7.29,0,0,1-2.77-2.17c-.21-.31-1.47-2.15-.81-3.52.85-1.77,4.25-1.51,6-1.08,1,.25,2.44.62,2.71,1.62s-.8,2.57-2.84,3.52"/><path class="cls-15" d="M816.1,102.87c-.18.72-1,3.84-.19,4.19s2.16-1.48,3-2.75c3.48-5.25,1.72-11,3-11.45,1.79-.58,6.71,8,5.94,8.57-.51.39-3.85-2.33-3.44-3.25.61-1.38,10.12.12,10.51,2.94s-8.2,6.23-8.51,5.75c-.18-.27,2.63-1.41,4.75-4.81,1.75-2.81,1.56-5.27,3.38-8.13,1.14-1.79,1.46-2.66,2.32-2.88,1.55-.41,3.41,1.15,4.2,2.4,1.77,2.79.38,7.51-3.25,12"/><path class="cls-3" d="M722.6,352.75a2.65,2.65,0,0,1,.54,2.26l-.55,4.45h-1.27l.56-4.6a1.44,1.44,0,0,0-.34-1.33,2.46,2.46,0,0,0-1.61-.41,2.9,2.9,0,0,0-1.72.41,1.8,1.8,0,0,0-.66,1.33l-.57,4.6h-1.27l.54-4.45a3.3,3.3,0,0,1,1.1-2.26,4.17,4.17,0,0,1,2.71-.75A3.46,3.46,0,0,1,722.6,352.75Zm5.38-2.46a2.74,2.74,0,0,1,.45,2.23l-.86,6.94H726.3l.85-6.94a1.7,1.7,0,0,0-.26-1.37,1.84,1.84,0,0,0-1.37-.41H716.7l.14-1.12h8.82A3.15,3.15,0,0,1,728,350.29Z"/><path class="cls-3" d="M719.28,364.14a3.87,3.87,0,0,1-.62-1.32,3.66,3.66,0,0,0-.44-1.1.8.8,0,0,0-.71-.33,1.08,1.08,0,0,0-.76.31,1.3,1.3,0,0,0-.37.8,1,1,0,0,0,.12.73.57.57,0,0,0,.48.24.87.87,0,0,0,.51-.12l.3.07.16.77a2.14,2.14,0,0,1-1.28.4,1.56,1.56,0,0,1-.76-.21,1.52,1.52,0,0,1-.6-.69,2.13,2.13,0,0,1-.13-1.19,2.43,2.43,0,0,1,.8-1.63,2.36,2.36,0,0,1,1.61-.58,2.09,2.09,0,0,1,1.12.26,1.81,1.81,0,0,1,.66.71,6.68,6.68,0,0,1,.42,1.21c.19.7.43,1,.74,1s.39-.18.43-.53l.33-2.69h1.2l-.33,2.69a1.86,1.86,0,0,1-.57,1.16,1.58,1.58,0,0,1-1.15.46A1.41,1.41,0,0,1,719.28,364.14Z"/><path class="cls-3" d="M742.61,350.8a.51.51,0,0,0-.09.26l-.06.53a1.33,1.33,0,0,1,.71.48,1.13,1.13,0,0,1,.2.84l-.44,3.61a3.42,3.42,0,0,1-1.08,2.27,4,4,0,0,1-2.6.74,3,3,0,0,1-2.53-.9,3.83,3.83,0,0,1-2.77.9,3.2,3.2,0,0,1-2.41-.74,2.69,2.69,0,0,1-.51-2.27l.66-5.41a1.72,1.72,0,0,1,.55-1.13,1.8,1.8,0,0,1,1.24-.41,1.44,1.44,0,0,1,1.16.47,1.64,1.64,0,0,1,.28,1.28,2.31,2.31,0,0,1-.62,1.41,1.69,1.69,0,0,1-1.21.52.89.89,0,0,1-.38-.07l-.43,3.49a1.5,1.5,0,0,0,.32,1.33,2.08,2.08,0,0,0,1.48.41,2.51,2.51,0,0,0,1.58-.41,1.83,1.83,0,0,0,.65-1.33l.46-3.76a.52.52,0,0,0-.41-.66l-.28-.57.12-1a1.12,1.12,0,0,1,1.24-1.1H739l-.14,1.12h-1.31a.38.38,0,0,0-.25.06.37.37,0,0,0-.09.26l-.07.53a1.31,1.31,0,0,1,.7.48,1.13,1.13,0,0,1,.2.84l-.46,3.76a1.47,1.47,0,0,0,.32,1.33,2.1,2.1,0,0,0,1.48.41A2.52,2.52,0,0,0,741,358a1.83,1.83,0,0,0,.65-1.33l.46-3.76a.52.52,0,0,0-.42-.66l-.27-.57.12-1a1.12,1.12,0,0,1,1.24-1.1h1.55l-.14,1.12h-1.3A.41.41,0,0,0,742.61,350.8Zm-9.52-.05a.51.51,0,0,0-.17.36l-.15,1.21h.29c.41,0,.66-.31.74-.95a1.09,1.09,0,0,0,0-.58.35.35,0,0,0-.34-.17A.44.44,0,0,0,733.09,350.75Z"/><path class="cls-3" d="M752.73,348.69h1.2l-.13,1a2.1,2.1,0,0,1-.61,1.38,2.19,2.19,0,0,1-1.47.43,3,3,0,0,1-.77-.09c-.23-.06-.53-.16-.89-.29s-.65-.23-.89-.3a2.78,2.78,0,0,0-.8-.1H747.3a.41.41,0,0,0-.26.06.43.43,0,0,0-.09.26l-.07.53a1.32,1.32,0,0,1,.72.48,1.13,1.13,0,0,1,.2.84l-.63,5.09,2.16-1.77h.46l1.72,1.77.67-5.46h1.27l-.85,6.92h-1.27l-1.92-2-2.42,2h-1.27l.8-6.55a.53.53,0,0,0-.42-.66l-.27-.57.11-1a1.13,1.13,0,0,1,1.25-1.1h1.46a3.31,3.31,0,0,1,.92.12,8.12,8.12,0,0,1,.94.35,7.62,7.62,0,0,0,.76.29,1.87,1.87,0,0,0,.59.08.74.74,0,0,0,.52-.16.93.93,0,0,0,.22-.53Zm5.26,1.6a2.74,2.74,0,0,1,.45,2.23l-.85,6.94h-1.28l.85-6.94a1.7,1.7,0,0,0-.26-1.37,1.83,1.83,0,0,0-1.36-.41h-1.33l.14-1.12h1.32A3.15,3.15,0,0,1,758,350.29Z"/><path class="cls-3" d="M768,350.8a.42.42,0,0,0-.1.26l-.06.53a2.27,2.27,0,0,1,.88.5.94.94,0,0,1,.33.82l-.62,5c-.13,1.08-.65,1.62-1.57,1.62a1.17,1.17,0,0,1-1.05-.52,2.51,2.51,0,0,1-.2-1.56,2.11,2.11,0,0,1,.51-1.22,1.39,1.39,0,0,1,1-.42l.3,0,.12-1h-4.21L763,357.9c-.13,1.08-.66,1.62-1.58,1.62a1.14,1.14,0,0,1-1-.52,2.51,2.51,0,0,1-.2-1.56,2.11,2.11,0,0,1,.51-1.22,1.36,1.36,0,0,1,1-.42l.3,0,.36-2.92a.43.43,0,0,0-.21-.42,1.61,1.61,0,0,0-.55-.24l-.27-.57.12-1a1.12,1.12,0,0,1,1.24-1.1h1.55l-.14,1.12h-1.3a.41.41,0,0,0-.26.06.51.51,0,0,0-.09.26l-.06.53a2.38,2.38,0,0,1,.89.5,1,1,0,0,1,.33.82l-.11.87h4.21l.11-.87a.43.43,0,0,0-.21-.42,1.65,1.65,0,0,0-.54-.24l-.28-.57.11-1a1.13,1.13,0,0,1,1.26-1.1h1.55l-.13,1.12h-1.31A.38.38,0,0,0,768,350.8Zm-6.34,7.59a.64.64,0,0,0,.11-.33l.16-1.29h-.23a.48.48,0,0,0-.4.16,1.06,1.06,0,0,0-.18.54,2.4,2.4,0,0,0,0,.77c0,.17.13.25.28.25A.33.33,0,0,0,761.66,358.39Zm5.47,0a.56.56,0,0,0,.11-.33l.16-1.29h-.23a.47.47,0,0,0-.39.16,1.16,1.16,0,0,0-.19.54,2.4,2.4,0,0,0,0,.77.28.28,0,0,0,.28.25A.33.33,0,0,0,767.13,358.39Z"/><path class="cls-3" d="M766.65,361.92l-.12,1h0a.71.71,0,0,1,.56.24.79.79,0,0,1,.16.64.86.86,0,0,1-.33.58,1.06,1.06,0,0,1-.69.23.88.88,0,0,1-.62-.21.73.73,0,0,1-.24-.56H762a1.5,1.5,0,0,1-1.13-.39,1.27,1.27,0,0,1-.29-1.07,1.59,1.59,0,0,1,.55-1.06,1.92,1.92,0,0,1,1.23-.38h3.36l.07-.54h1.08l-.07.54h.86l-.12,1Zm-1.08,0h-3.44a.72.72,0,0,0-.42.12.47.47,0,0,0-.19.32.38.38,0,0,0,.1.34.58.58,0,0,0,.4.12h3.44Z"/><path class="cls-3" d="M772.66,352.75a4.2,4.2,0,0,1,2.72-.75,3.46,3.46,0,0,1,2.54.75,2.65,2.65,0,0,1,.54,2.26l-.55,4.45h-1.27l.56-4.6a1.44,1.44,0,0,0-.34-1.33,2.47,2.47,0,0,0-1.61-.41,2.9,2.9,0,0,0-1.72.41,1.84,1.84,0,0,0-.67,1.33l-.56,4.6H771l.55-4.45A3.29,3.29,0,0,1,772.66,352.75Zm-.64-2,.13-1.12h7.05l-.14,1.12Z"/><path class="cls-3" d="M793.66,350.29a2.74,2.74,0,0,1,.45,2.23l-.85,6.94H792l.85-6.94a1.7,1.7,0,0,0-.26-1.37,1.85,1.85,0,0,0-1.37-.41h-2.62a.41.41,0,0,0-.26.06.43.43,0,0,0-.09.26l-.07.53a2.31,2.31,0,0,1,.89.5.93.93,0,0,1,.32.82l-.61,5c-.14,1.08-.66,1.62-1.57,1.62a1.17,1.17,0,0,1-1.05-.52,2.37,2.37,0,0,1-.2-1.56,2,2,0,0,1,.51-1.22,1.35,1.35,0,0,1,1-.42l.31,0,.12-1h-4.22l-.37,3.06c-.13,1.08-.66,1.62-1.58,1.62a1.15,1.15,0,0,1-1.05-.52,2.51,2.51,0,0,1-.19-1.56,2.11,2.11,0,0,1,.5-1.22,1.36,1.36,0,0,1,1-.42l.31,0,.36-2.92a.43.43,0,0,0-.21-.42,1.67,1.67,0,0,0-.56-.24l-.27-.57.12-1a1.13,1.13,0,0,1,1.24-1.1h1.56l-.14,1.12H783.1a.38.38,0,0,0-.25.06.42.42,0,0,0-.1.26l-.06.53a2.31,2.31,0,0,1,.89.5.91.91,0,0,1,.33.82l-.11.87H788l.11-.87a.44.44,0,0,0-.22-.42,1.7,1.7,0,0,0-.53-.24l-.29-.57.12-1a1.13,1.13,0,0,1,1.26-1.1h2.87A3.15,3.15,0,0,1,793.66,350.29ZM782,358.39a.75.75,0,0,0,.11-.33l.15-1.29H782a.47.47,0,0,0-.39.16,1.16,1.16,0,0,0-.19.54,2.4,2.4,0,0,0,0,.77.28.28,0,0,0,.28.25A.37.37,0,0,0,782,358.39Zm5.47,0a.75.75,0,0,0,.11-.33l.16-1.29h-.23a.48.48,0,0,0-.4.16,1.06,1.06,0,0,0-.18.54,2.14,2.14,0,0,0,0,.77c0,.17.13.25.27.25A.35.35,0,0,0,787.46,358.39Z"/><path class="cls-3" d="M799.05,353.76a4.58,4.58,0,0,0,1.91.89,10,10,0,0,0,2.38.29l.39.44-.23,1.92c-.18,1.47-.94,2.2-2.27,2.2a2.24,2.24,0,0,1-1.14-.27,5.21,5.21,0,0,1-1-.77,4.7,4.7,0,0,0-.64-.56,1.07,1.07,0,0,0-.61-.18l-.21,1.74h-1.27l.42-3.48h1.28l-.08.62a2.26,2.26,0,0,1,1.12.26,4.35,4.35,0,0,1,1,.75,4.42,4.42,0,0,0,.65.55,1,1,0,0,0,.6.17.88.88,0,0,0,.63-.2,1.07,1.07,0,0,0,.27-.67l.19-1.49q-5.62-.54-5.24-3.72.33-2.72,3.81-2.71a4.21,4.21,0,0,1,2.61.64,2,2,0,0,1,.64,2,2.29,2.29,0,0,1-.45,1.17,2.06,2.06,0,0,1-.82.65l-.5-.57,0-.31a1.09,1.09,0,0,0,.32-.4,2.14,2.14,0,0,0,.13-.54,1.12,1.12,0,0,0-.42-1.13,3.05,3.05,0,0,0-1.69-.36,3,3,0,0,0-1.68.41,1.55,1.55,0,0,0-.71,1.18A1.61,1.61,0,0,0,799.05,353.76Z"/><path class="cls-3" d="M809.23,356.22a1.69,1.69,0,0,1,.22,1.22,2.87,2.87,0,0,1-.59,1.56,1.5,1.5,0,0,1-1.18.52q-1.36,0-1.17-1.62l.62-5a.53.53,0,0,0-.43-.66l-.27-.57.12-1a1.13,1.13,0,0,1,1.24-1.1h1.56l-.14,1.12H807.9a.38.38,0,0,0-.25.06.37.37,0,0,0-.09.26l-.07.53a1.32,1.32,0,0,1,.72.48,1.13,1.13,0,0,1,.19.84l-.35,2.9h.28A1,1,0,0,1,809.23,356.22Zm-1,2a2.43,2.43,0,0,0,.19-.77,1,1,0,0,0-.05-.54.37.37,0,0,0-.36-.16h-.23l-.16,1.29a.63.63,0,0,0,0,.33.27.27,0,0,0,.24.1A.36.36,0,0,0,808.27,358.24Z"/><path class="cls-3" d="M811.37,359.46l.68-5.57h1.28l-.51,4.11,2.16-1.77h.46l1.72,1.77.5-4.11h1.28l-.69,5.57H817l-1.92-2-2.42,2Zm1.6-6.88a1.57,1.57,0,0,1-.65-1.55,1.8,1.8,0,0,1,.5-1.1,1.47,1.47,0,0,1,1.06-.39,1.91,1.91,0,0,1,.57.08,1.63,1.63,0,0,1,.54.33l-.37.76-.31.08a.44.44,0,0,0-.33-.13.4.4,0,0,0-.29.11.44.44,0,0,0-.14.28.69.69,0,0,0,.42.7,2.83,2.83,0,0,0,1.31.25,3,3,0,0,0,2.07-.68,2.65,2.65,0,0,0,.92-1.78l.1-.83h1.2l-.1.83a3.94,3.94,0,0,1-1.33,2.62,4.46,4.46,0,0,1-3,1A3.62,3.62,0,0,1,813,352.58Z"/><path class="cls-3" d="M820.06,344.73l-.35,2.9-.38.6h-5.06a1.5,1.5,0,0,1-1.07-.34,1,1,0,0,1-.29-1,1.88,1.88,0,0,1,.88-1.37,3.46,3.46,0,0,1,2-.54,3.79,3.79,0,0,1,3,1.34l.2-1.63Zm-1.69,2.52a3.33,3.33,0,0,0-1.16-.85,3.62,3.62,0,0,0-1.54-.32,2.07,2.07,0,0,0-1.12.25.82.82,0,0,0-.45.6c0,.21.08.32.3.32Z"/><path class="cls-3" d="M828.3,350.8a.42.42,0,0,0-.1.26l-.06.53a1.31,1.31,0,0,1,.7.48,1.13,1.13,0,0,1,.2.84l-.45,3.61a3.34,3.34,0,0,1-1.09,2.27,4.18,4.18,0,0,1-2.72.74,3.47,3.47,0,0,1-2.54-.74,2.65,2.65,0,0,1-.53-2.27l.44-3.61a.53.53,0,0,0-.43-.66l-.27-.57.12-1a1.13,1.13,0,0,1,1.24-1.1h1.56l-.14,1.12h-1.31a.4.4,0,0,0-.25.06.37.37,0,0,0-.09.26l-.07.53a1.32,1.32,0,0,1,.72.48,1.13,1.13,0,0,1,.2.84l-.15,1.17h4.34l.14-1.17a.52.52,0,0,0-.41-.66l-.28-.57.11-1a1.13,1.13,0,0,1,1.25-1.1H830l-.13,1.12h-1.31A.38.38,0,0,0,828.3,350.8Zm-1.67,7.2a1.84,1.84,0,0,0,.67-1.33l.19-1.53h-4.34l-.19,1.53a1.47,1.47,0,0,0,.34,1.33,2.39,2.39,0,0,0,1.62.41A2.84,2.84,0,0,0,826.63,358Z"/><path class="cls-3" d="M832.8,350.8a.37.37,0,0,0-.09.26l-.07.53a1.37,1.37,0,0,1,.71.48,1.13,1.13,0,0,1,.19.84l-1.42,11.61h-1.28L829.41,363l-1.82,1.52h-1.27l.33-2.74q.18-1.41,1.44-1.41a1.79,1.79,0,0,1,.75.15l-.2.77-.24.22h-.14a.49.49,0,0,0-.3.07.4.4,0,0,0-.11.27l-.17,1.33,1.64-1.3h.44l1.25,1.23,1.26-10.21a.53.53,0,0,0-.42-.66l-.28-.57.12-1a1.13,1.13,0,0,1,1.26-1.1h1.55l-.14,1.12h-1.31A.4.4,0,0,0,832.8,350.8Z"/><path class="cls-3" d="M835.86,344.7l-.36,2.9-.38.62h-4a1.62,1.62,0,0,1-1.16-.38,1.15,1.15,0,0,1-.31-1,2,2,0,0,1,.73-1.31,2.39,2.39,0,0,1,1.55-.51,3.39,3.39,0,0,1,1.45.34,4.14,4.14,0,0,1,1.26.91l.19-1.55Zm-1.66,2.57a4.85,4.85,0,0,0-1.15-.9,2.63,2.63,0,0,0-1.22-.33,1.21,1.21,0,0,0-.75.2.74.74,0,0,0-.32.55c0,.32.1.48.43.48Z"/><path class="cls-3" d="M842.72,352.82a2.65,2.65,0,0,1,.53,2.27l-.53,4.37h-1.28l.55-4.52a1.44,1.44,0,0,0-.33-1.33,2.39,2.39,0,0,0-1.62-.41,2.85,2.85,0,0,0-1.72.41,1.8,1.8,0,0,0-.66,1.33,4.44,4.44,0,0,0,0,1q0,.46.15,1c.05.36.09.63.11.82a3,3,0,0,1,0,.6,1.22,1.22,0,0,1-.44.8,1.44,1.44,0,0,1-.93.32,1.36,1.36,0,0,1-1.26-.62,4.56,4.56,0,0,1-.52-1.69l1.09-.35a5,5,0,0,0,.34,1.12.87.87,0,0,0,.48.51v-.11a4.47,4.47,0,0,0-.13-1.18c-.08-.49-.14-.89-.17-1.19a4.71,4.71,0,0,1,0-.92,3.35,3.35,0,0,1,1.1-2.27,4.24,4.24,0,0,1,2.72-.74A3.52,3.52,0,0,1,842.72,352.82Zm5.38-2.53a2.71,2.71,0,0,1,.45,2.23l-.85,6.94h-1.28l.85-6.94a1.7,1.7,0,0,0-.26-1.37,1.83,1.83,0,0,0-1.36-.41h-8.83l.14-1.12h8.82A3.15,3.15,0,0,1,848.1,350.29Z"/><path class="cls-3" d="M858.57,351.39a1.1,1.1,0,0,1,0,.52l-.92,7.55H856.4l.91-7.43a.68.68,0,0,0-.16-.57l-.49-.52-1.28,1h-.46l-1-1-.61.52a.85.85,0,0,0-.3.57l-.48,3.88a1.49,1.49,0,0,1,.55-.11,1.25,1.25,0,0,1,1,.41,1.69,1.69,0,0,1,.21,1.25q-.25,2.07-2,2.07c-1,0-1.46-.56-1.32-1.69l.72-5.93a1.87,1.87,0,0,1,.15-.52,1.74,1.74,0,0,1,.36-.44l1.45-1.33h.46l1.17,1.17,1.45-1.17h.44l1.15,1.33A1.33,1.33,0,0,1,858.57,351.39Zm-5.45,5.53a.41.41,0,0,0-.37-.15h-.4L852.2,358c0,.33.06.5.32.5a.46.46,0,0,0,.43-.23,2,2,0,0,0,.22-.78A.92.92,0,0,0,853.12,356.92Z"/><path class="cls-3" d="M863.68,356.22a1.74,1.74,0,0,1,.21,1.22,3,3,0,0,1-.58,1.56,1.53,1.53,0,0,1-1.18.52q-1.38,0-1.17-1.62l.61-5a.53.53,0,0,0-.43-.66l-.27-.57.12-1a1.13,1.13,0,0,1,1.24-1.1h1.56l-.14,1.12h-1.31a.4.4,0,0,0-.25.06.37.37,0,0,0-.09.26l-.07.53a1.32,1.32,0,0,1,.72.48,1.13,1.13,0,0,1,.2.84l-.36,2.9h.28A1.06,1.06,0,0,1,863.68,356.22Zm-1,2a2.43,2.43,0,0,0,.19-.77,1,1,0,0,0,0-.54.37.37,0,0,0-.36-.16h-.23l-.15,1.29a.66.66,0,0,0,0,.33.28.28,0,0,0,.25.1A.36.36,0,0,0,862.71,358.24Z"/><path class="cls-3" d="M872.82,348.69H874l-.13,1a2.1,2.1,0,0,1-.61,1.38,2.19,2.19,0,0,1-1.47.43,3,3,0,0,1-.77-.09c-.23-.06-.53-.16-.89-.29s-.65-.23-.89-.3a2.78,2.78,0,0,0-.8-.1h-1.07a.41.41,0,0,0-.26.06.51.51,0,0,0-.09.26l-.06.53a1.33,1.33,0,0,1,.71.48,1.13,1.13,0,0,1,.2.84l-.63,5.09,2.16-1.77h.46L871.6,358l.67-5.46h1.28l-.85,6.92h-1.28l-1.92-2-2.42,2h-1.27l.8-6.55a.53.53,0,0,0-.42-.66l-.27-.57.11-1a1.13,1.13,0,0,1,1.25-1.1h1.46a3.31,3.31,0,0,1,.92.12,8.12,8.12,0,0,1,.94.35c.32.14.58.23.76.29a1.9,1.9,0,0,0,.6.08.73.73,0,0,0,.51-.16.87.87,0,0,0,.22-.53Zm5.26,1.6a2.67,2.67,0,0,1,.45,2.23l-.85,6.94H876.4l.85-6.94a1.7,1.7,0,0,0-.26-1.37,1.83,1.83,0,0,0-1.36-.41H874.3l.14-1.12h1.32A3.15,3.15,0,0,1,878.08,350.29Z"/><path class="cls-3" d="M887.67,352.75a2.62,2.62,0,0,1,.53,2.26l-.54,4.45h-1.28l.56-4.6a1.44,1.44,0,0,0-.34-1.33,2.44,2.44,0,0,0-1.61-.41,2.92,2.92,0,0,0-1.72.41,1.8,1.8,0,0,0-.66,1.33l-.24,1.92a3.7,3.7,0,0,1,1.14-.77,3.2,3.2,0,0,1,1.19-.24h.23l.2.23-.3.83h-.4a2.92,2.92,0,0,0-2.22,1.29l-.17,1.34h-1.27l.54-4.45a3.3,3.3,0,0,1,1.1-2.26,4.18,4.18,0,0,1,2.72-.75A3.47,3.47,0,0,1,887.67,352.75Zm-5.77-3.13h7l-.14,1.12h-7Z"/><path class="cls-3" d="M892.07,350.8a.37.37,0,0,0-.09.26l-.07.53a1.32,1.32,0,0,1,.72.48,1.13,1.13,0,0,1,.2.84L892.2,358l2.16-1.77h.46l1.72,1.77.67-5.46h1.27l-.85,6.92h-1.27l-1.92-2-2.42,2h-1.27l.8-6.55a.53.53,0,0,0-.43-.66l-.27-.57.12-1a1.13,1.13,0,0,1,1.25-1.1h1.46a3.36,3.36,0,0,1,.92.12,8.86,8.86,0,0,1,.94.35,7.62,7.62,0,0,0,.76.29,1.87,1.87,0,0,0,.59.08.69.69,0,0,0,.51-.16.82.82,0,0,0,.22-.53l.14-1.08H899l-.12,1a2.14,2.14,0,0,1-.61,1.38,2.2,2.2,0,0,1-1.47.43,3.1,3.1,0,0,1-.78-.09c-.22-.06-.52-.16-.88-.29s-.65-.23-.89-.3a2.83,2.83,0,0,0-.8-.1h-1.08A.4.4,0,0,0,892.07,350.8Z"/><path class="cls-3" d="M894.42,347.62a1.76,1.76,0,0,1-.56-1.62,2,2,0,0,1,.57-1.19,1.59,1.59,0,0,1,1.14-.47,1.73,1.73,0,0,1,1.12.4l-.34.66-.32.07a.52.52,0,0,0-.38-.13.69.69,0,0,0-.49.18.84.84,0,0,0-.23.48.9.9,0,0,0,.38.85,1.8,1.8,0,0,0,1.16.34,2.4,2.4,0,0,0,1.79-.72,3.3,3.3,0,0,0,.86-2l0-.25h1l0,.25a4.41,4.41,0,0,1-1.23,2.75,3.54,3.54,0,0,1-2.59,1A2.78,2.78,0,0,1,894.42,347.62Z"/><path class="cls-3" d="M912.67,350.8a.51.51,0,0,0-.09.26l-.06.53a1.33,1.33,0,0,1,.71.48,1.13,1.13,0,0,1,.2.84l-.45,3.61a3.37,3.37,0,0,1-1.07,2.27,4,4,0,0,1-2.6.74,3,3,0,0,1-2.53-.9,3.86,3.86,0,0,1-2.78.9,3.18,3.18,0,0,1-2.4-.74,2.72,2.72,0,0,1-.52-2.27l.67-5.41a1.72,1.72,0,0,1,.55-1.13,1.78,1.78,0,0,1,1.24-.41,1.4,1.4,0,0,1,1.15.47,1.6,1.6,0,0,1,.29,1.28,2.31,2.31,0,0,1-.62,1.41,1.69,1.69,0,0,1-1.21.52.89.89,0,0,1-.38-.07l-.43,3.49a1.5,1.5,0,0,0,.32,1.33,2.08,2.08,0,0,0,1.48.41,2.51,2.51,0,0,0,1.58-.41,1.83,1.83,0,0,0,.65-1.33l.46-3.76a.52.52,0,0,0-.41-.66l-.28-.57.12-1a1.12,1.12,0,0,1,1.24-1.1h1.57l-.14,1.12h-1.31a.38.38,0,0,0-.25.06.42.42,0,0,0-.1.26l-.06.53a1.31,1.31,0,0,1,.7.48,1.13,1.13,0,0,1,.2.84l-.46,3.76A1.47,1.47,0,0,0,908,358a2.1,2.1,0,0,0,1.48.41A2.54,2.54,0,0,0,911,358a1.86,1.86,0,0,0,.65-1.33l.46-3.76a.53.53,0,0,0-.42-.66l-.27-.57.11-1a1.13,1.13,0,0,1,1.25-1.1h1.55l-.14,1.12h-1.3A.41.41,0,0,0,912.67,350.8Zm-9.52-.05a.51.51,0,0,0-.17.36l-.15,1.21h.29c.41,0,.66-.31.73-.95a1,1,0,0,0,0-.58.36.36,0,0,0-.34-.17A.44.44,0,0,0,903.15,350.75Z"/><line class="cls-3" x1="715.64" y1="310.53" x2="904.81" y2="310.53"/><rect class="cls-16" x="715.64" y="310.03" width="189.18" height="1"/><path class="cls-3" d="M728,270.37h1.75v15h-1.59l-8.53-11.78v11.78h-1.77v-15h1.59L728,282.09Z"/><path class="cls-3" d="M733.46,284a6.05,6.05,0,0,1-1.3-4.13,6,6,0,0,1,1.3-4.1,5,5,0,0,1,7.13,0,6,6,0,0,1,1.3,4.1,6.1,6.1,0,0,1-1.3,4.13,5,5,0,0,1-7.13,0Zm5.85-1.09a5,5,0,0,0,.83-3,4.93,4.93,0,0,0-.83-3,2.9,2.9,0,0,0-4.57,0,5,5,0,0,0-.83,3,5,5,0,0,0,.83,3,2.88,2.88,0,0,0,4.57,0Z"/><path class="cls-3" d="M743.77,285.17a.94.94,0,0,1-.27-.7,1,1,0,0,1,.27-.7,1,1,0,0,1,.7-.28.92.92,0,0,1,.68.28,1,1,0,0,1,.26.7,1,1,0,0,1-.26.7.94.94,0,0,1-.68.26A1,1,0,0,1,743.77,285.17Z"/><path class="cls-3" d="M752.33,285.17a.94.94,0,0,1-.26-.7.93.93,0,0,1,1-1,.9.9,0,0,1,.68.28,1,1,0,0,1,.26.7.89.89,0,0,1-.94,1A1,1,0,0,1,752.33,285.17Z"/><path class="cls-3" d="M755.84,285.17a.94.94,0,0,1-.27-.7,1,1,0,0,1,.27-.7,1,1,0,0,1,.7-.28.92.92,0,0,1,.68.28,1,1,0,0,1,.26.7,1,1,0,0,1-.26.7.94.94,0,0,1-.68.26A1,1,0,0,1,755.84,285.17Z"/><path class="cls-3" d="M759.35,285.17a.94.94,0,0,1-.27-.7,1,1,0,0,1,.27-.7.93.93,0,0,1,.7-.28.9.9,0,0,1,.67.28,1,1,0,0,1,.26.7.94.94,0,0,1-.26.7.92.92,0,0,1-.67.26A1,1,0,0,1,759.35,285.17Z"/><path class="cls-3" d="M762.85,285.17a.94.94,0,0,1-.27-.7,1,1,0,0,1,.27-.7,1,1,0,0,1,.7-.28.92.92,0,0,1,.68.28,1,1,0,0,1,.26.7,1,1,0,0,1-.26.7.94.94,0,0,1-.68.26A1,1,0,0,1,762.85,285.17Z"/><path class="cls-3" d="M766.36,285.17a.94.94,0,0,1-.27-.7,1,1,0,0,1,.27-.7,1,1,0,0,1,.7-.28.9.9,0,0,1,.67.28,1,1,0,0,1,.26.7.94.94,0,0,1-.26.7.92.92,0,0,1-.67.26A1,1,0,0,1,766.36,285.17Z"/><path class="cls-3" d="M769.86,285.17a.94.94,0,0,1-.27-.7,1,1,0,0,1,.27-.7,1,1,0,0,1,.7-.28.92.92,0,0,1,.68.28,1,1,0,0,1,.26.7,1,1,0,0,1-.26.7.94.94,0,0,1-.68.26A1,1,0,0,1,769.86,285.17Z"/><path class="cls-3" d="M773.37,285.17a.94.94,0,0,1-.27-.7,1,1,0,0,1,.27-.7,1,1,0,0,1,.7-.28.9.9,0,0,1,.67.28,1,1,0,0,1,.26.7.94.94,0,0,1-.26.7.92.92,0,0,1-.67.26A1,1,0,0,1,773.37,285.17Z"/><path class="cls-3" d="M776.87,285.17a.94.94,0,0,1-.27-.7,1,1,0,0,1,.27-.7,1,1,0,0,1,.7-.28.92.92,0,0,1,.68.28,1,1,0,0,1,.26.7,1,1,0,0,1-.26.7.94.94,0,0,1-.68.26A1,1,0,0,1,776.87,285.17Z"/><path class="cls-3" d="M780.38,285.17a.94.94,0,0,1-.27-.7,1,1,0,0,1,.27-.7,1,1,0,0,1,.7-.28.9.9,0,0,1,.67.28,1,1,0,0,1,.27.7.94.94,0,0,1-.27.7.92.92,0,0,1-.67.26A1,1,0,0,1,780.38,285.17Z"/><path class="cls-3" d="M783.88,285.17a.94.94,0,0,1-.27-.7.94.94,0,0,1,1-1,.92.92,0,0,1,.68.28,1,1,0,0,1,.26.7,1,1,0,0,1-.26.7.94.94,0,0,1-.68.26A1,1,0,0,1,783.88,285.17Z"/><path class="cls-3" d="M787.39,285.17a.94.94,0,0,1-.27-.7,1,1,0,0,1,.27-.7,1,1,0,0,1,.7-.28.9.9,0,0,1,.67.28,1,1,0,0,1,.27.7.94.94,0,0,1-.27.7.92.92,0,0,1-.67.26A1,1,0,0,1,787.39,285.17Z"/><path class="cls-3" d="M790.89,285.17a.94.94,0,0,1-.27-.7.94.94,0,0,1,1-1,.9.9,0,0,1,.68.28,1,1,0,0,1,.26.7,1,1,0,0,1-.26.7.93.93,0,0,1-.68.26A1,1,0,0,1,790.89,285.17Z"/><path class="cls-3" d="M794.4,285.17a.94.94,0,0,1-.27-.7,1,1,0,0,1,.27-.7,1,1,0,0,1,.7-.28.88.88,0,0,1,.67.28,1,1,0,0,1,.27.7.94.94,0,0,1-.27.7.9.9,0,0,1-.67.26A1,1,0,0,1,794.4,285.17Z"/><path class="cls-3" d="M797.9,285.17a.94.94,0,0,1-.26-.7.93.93,0,0,1,1-1,.9.9,0,0,1,.68.28,1,1,0,0,1,.26.7,1,1,0,0,1-.26.7.93.93,0,0,1-.68.26A1,1,0,0,1,797.9,285.17Z"/><path class="cls-3" d="M801.41,285.17a.94.94,0,0,1-.27-.7,1,1,0,0,1,.27-.7,1,1,0,0,1,.7-.28.92.92,0,0,1,.68.28,1,1,0,0,1,.26.7,1,1,0,0,1-.26.7.94.94,0,0,1-.68.26A1,1,0,0,1,801.41,285.17Z"/><path class="cls-3" d="M804.91,285.17a.94.94,0,0,1-.26-.7.93.93,0,0,1,1-1,.9.9,0,0,1,.68.28,1,1,0,0,1,.26.7.89.89,0,0,1-.94,1A1,1,0,0,1,804.91,285.17Z"/><path class="cls-3" d="M808.42,285.17a.94.94,0,0,1-.27-.7,1,1,0,0,1,.27-.7,1,1,0,0,1,.7-.28.92.92,0,0,1,.68.28,1,1,0,0,1,.26.7,1,1,0,0,1-.26.7.94.94,0,0,1-.68.26A1,1,0,0,1,808.42,285.17Z"/><path class="cls-3" d="M811.93,285.17a.94.94,0,0,1-.27-.7,1,1,0,0,1,.27-.7.93.93,0,0,1,.7-.28.9.9,0,0,1,.67.28,1,1,0,0,1,.26.7.94.94,0,0,1-.26.7.92.92,0,0,1-.67.26A1,1,0,0,1,811.93,285.17Z"/><path class="cls-3" d="M815.43,285.17a.94.94,0,0,1-.27-.7,1,1,0,0,1,.27-.7,1,1,0,0,1,.7-.28.92.92,0,0,1,.68.28,1,1,0,0,1,.26.7,1,1,0,0,1-.26.7.94.94,0,0,1-.68.26A1,1,0,0,1,815.43,285.17Z"/><path class="cls-3" d="M818.94,285.17a.94.94,0,0,1-.27-.7,1,1,0,0,1,.27-.7,1,1,0,0,1,.7-.28.9.9,0,0,1,.67.28,1,1,0,0,1,.26.7.94.94,0,0,1-.26.7.92.92,0,0,1-.67.26A1,1,0,0,1,818.94,285.17Z"/><path class="cls-3" d="M822.44,285.17a.94.94,0,0,1-.27-.7,1,1,0,0,1,.27-.7,1,1,0,0,1,.7-.28.92.92,0,0,1,.68.28,1,1,0,0,1,.26.7,1,1,0,0,1-.26.7.94.94,0,0,1-.68.26A1,1,0,0,1,822.44,285.17Z"/><path class="cls-3" d="M826,285.17a.94.94,0,0,1-.27-.7,1,1,0,0,1,.27-.7,1,1,0,0,1,.7-.28.9.9,0,0,1,.67.28,1,1,0,0,1,.26.7.94.94,0,0,1-.26.7.92.92,0,0,1-.67.26A1,1,0,0,1,826,285.17Z"/><path class="cls-3" d="M829.45,285.17a.94.94,0,0,1-.27-.7.94.94,0,0,1,1-1,.92.92,0,0,1,.68.28,1,1,0,0,1,.26.7,1,1,0,0,1-.26.7.94.94,0,0,1-.68.26A1,1,0,0,1,829.45,285.17Z"/><path class="cls-3" d="M833,285.17a.94.94,0,0,1-.27-.7,1,1,0,0,1,.27-.7,1,1,0,0,1,.7-.28.9.9,0,0,1,.67.28,1,1,0,0,1,.27.7.94.94,0,0,1-.27.7.92.92,0,0,1-.67.26A1,1,0,0,1,833,285.17Z"/><path class="cls-3" d="M836.46,285.17a.94.94,0,0,1-.27-.7.94.94,0,0,1,1-1,.9.9,0,0,1,.68.28,1,1,0,0,1,.26.7,1,1,0,0,1-.26.7.93.93,0,0,1-.68.26A1,1,0,0,1,836.46,285.17Z"/><path class="cls-3" d="M840,285.17a.94.94,0,0,1-.27-.7,1,1,0,0,1,.27-.7,1,1,0,0,1,.7-.28.9.9,0,0,1,.67.28,1,1,0,0,1,.27.7.94.94,0,0,1-.27.7.92.92,0,0,1-.67.26A1,1,0,0,1,840,285.17Z"/><path class="cls-3" d="M843.47,285.17a.94.94,0,0,1-.26-.7.93.93,0,0,1,1-1,.9.9,0,0,1,.68.28,1,1,0,0,1,.26.7,1,1,0,0,1-.26.7.93.93,0,0,1-.68.26A1,1,0,0,1,843.47,285.17Z"/><path class="cls-3" d="M847,285.17a.94.94,0,0,1-.27-.7,1,1,0,0,1,.27-.7,1,1,0,0,1,.7-.28.88.88,0,0,1,.67.28,1,1,0,0,1,.27.7.94.94,0,0,1-.27.7.9.9,0,0,1-.67.26A1,1,0,0,1,847,285.17Z"/><path class="cls-3" d="M850.48,285.17a1,1,0,0,1-.26-.7,1,1,0,0,1,.26-.7,1,1,0,0,1,.71-.28.9.9,0,0,1,.67.28,1,1,0,0,1,.26.7.94.94,0,0,1-.26.7.92.92,0,0,1-.67.26A1,1,0,0,1,850.48,285.17Z"/><path class="cls-3" d="M854,285.17a.94.94,0,0,1-.27-.7,1,1,0,0,1,.27-.7,1,1,0,0,1,.7-.28.92.92,0,0,1,.68.28,1,1,0,0,1,.26.7,1,1,0,0,1-.26.7.94.94,0,0,1-.68.26A1,1,0,0,1,854,285.17Z"/><path class="cls-3" d="M857.5,285.17a.94.94,0,0,1-.27-.7,1,1,0,0,1,.27-.7,1,1,0,0,1,.7-.28.9.9,0,0,1,.67.28,1,1,0,0,1,.26.7.94.94,0,0,1-.26.7.92.92,0,0,1-.67.26A1,1,0,0,1,857.5,285.17Z"/><path class="cls-3" d="M861,285.17a.94.94,0,0,1-.27-.7,1,1,0,0,1,.27-.7,1,1,0,0,1,.7-.28.92.92,0,0,1,.68.28,1,1,0,0,1,.26.7,1,1,0,0,1-.26.7.94.94,0,0,1-.68.26A1,1,0,0,1,861,285.17Z"/><path class="cls-3" d="M864.51,285.17a.94.94,0,0,1-.27-.7,1,1,0,0,1,.27-.7,1,1,0,0,1,.7-.28.9.9,0,0,1,.67.28,1,1,0,0,1,.26.7.94.94,0,0,1-.26.7.92.92,0,0,1-.67.26A1,1,0,0,1,864.51,285.17Z"/><path class="cls-3" d="M868,285.17a.94.94,0,0,1-.27-.7,1,1,0,0,1,.27-.7,1,1,0,0,1,.7-.28.92.92,0,0,1,.68.28,1,1,0,0,1,.26.7,1,1,0,0,1-.26.7.94.94,0,0,1-.68.26A1,1,0,0,1,868,285.17Z"/><path class="cls-3" d="M871.52,285.17a.94.94,0,0,1-.27-.7,1,1,0,0,1,.27-.7,1,1,0,0,1,.7-.28.9.9,0,0,1,.67.28,1,1,0,0,1,.26.7.94.94,0,0,1-.26.7.92.92,0,0,1-.67.26A1,1,0,0,1,871.52,285.17Z"/><path class="cls-3" d="M875,285.17a.94.94,0,0,1-.27-.7.94.94,0,0,1,1-1,.92.92,0,0,1,.68.28,1,1,0,0,1,.26.7,1,1,0,0,1-.26.7.94.94,0,0,1-.68.26A1,1,0,0,1,875,285.17Z"/><path class="cls-3" d="M878.53,285.17a.94.94,0,0,1-.27-.7,1,1,0,0,1,.27-.7,1,1,0,0,1,.7-.28.9.9,0,0,1,.67.28,1,1,0,0,1,.27.7.94.94,0,0,1-.27.7.92.92,0,0,1-.67.26A1,1,0,0,1,878.53,285.17Z"/><path class="cls-3" d="M882,285.17a.94.94,0,0,1-.27-.7.94.94,0,0,1,1-1,.92.92,0,0,1,.68.28,1,1,0,0,1,.26.7,1,1,0,0,1-.26.7.94.94,0,0,1-.68.26A1,1,0,0,1,882,285.17Z"/><path class="cls-3" d="M885.54,285.17a.94.94,0,0,1-.27-.7,1,1,0,0,1,.27-.7,1,1,0,0,1,.7-.28.88.88,0,0,1,.67.28,1,1,0,0,1,.27.7.94.94,0,0,1-.27.7.9.9,0,0,1-.67.26A1,1,0,0,1,885.54,285.17Z"/><path class="cls-3" d="M889,285.17a.94.94,0,0,1-.27-.7.94.94,0,0,1,1-1,.9.9,0,0,1,.68.28,1,1,0,0,1,.26.7,1,1,0,0,1-.26.7.93.93,0,0,1-.68.26A1,1,0,0,1,889,285.17Z"/><path class="cls-3" d="M892.55,285.17a.94.94,0,0,1-.27-.7,1,1,0,0,1,.27-.7,1,1,0,0,1,.7-.28.92.92,0,0,1,.68.28,1,1,0,0,1,.26.7,1,1,0,0,1-.26.7.94.94,0,0,1-.68.26A1,1,0,0,1,892.55,285.17Z"/><path class="cls-3" d="M896.05,285.17a.94.94,0,0,1-.26-.7.93.93,0,0,1,1-1,.9.9,0,0,1,.68.28,1,1,0,0,1,.26.7,1,1,0,0,1-.26.7.93.93,0,0,1-.68.26A1,1,0,0,1,896.05,285.17Z"/><path class="cls-3" d="M899.56,285.17a.94.94,0,0,1-.27-.7,1,1,0,0,1,.27-.7,1,1,0,0,1,.7-.28.92.92,0,0,1,.68.28,1,1,0,0,1,.26.7,1,1,0,0,1-.26.7.94.94,0,0,1-.68.26A1,1,0,0,1,899.56,285.17Z"/><path class="cls-3" d="M903.06,285.17a1,1,0,0,1-.26-.7,1,1,0,0,1,.26-.7,1,1,0,0,1,.71-.28.9.9,0,0,1,.67.28,1,1,0,0,1,.26.7.94.94,0,0,1-.26.7.92.92,0,0,1-.67.26A1,1,0,0,1,903.06,285.17Z"/></g></g></g></svg>